<svg width="24" height="29" viewBox="0 0 24 29" fill="none" xmlns="http://www.w3.org/2000/svg">
<path d="M17.6215 9.34906C17.4518 9.37618 17.271 9.37597 17.114 9.4348C16.0153 9.84653 14.9215 10.2704 13.8144 10.695C13.7649 11.0286 13.9469 11.1523 14.2619 11.0853C14.695 10.9932 15.12 10.8661 15.5486 10.7545C15.6724 10.7223 15.7968 10.692 15.9509 10.6533C15.8032 11.4563 15.0813 11.6575 13.581 11.3821C13.5977 11.7439 13.5973 11.7453 13.9402 11.8383C14.7862 12.0676 15.6037 12.0406 16.3942 11.5352C16.3935 11.9721 16.1095 12.1194 15.7945 12.1903C15.1065 12.3453 14.4139 12.4311 13.746 12.0918C13.6722 12.0543 13.5795 12.0518 13.4782 12.0293C13.3592 12.2838 13.4294 12.4725 13.6994 12.4922C14.3001 12.5361 14.9041 12.5434 15.5069 12.5488C15.6427 12.55 15.7792 12.4827 15.936 12.4416C15.6833 13.021 14.9075 13.1294 13.4624 12.8058C13.4868 12.9548 13.5095 13.0937 13.534 13.244C14.5772 13.4716 15.5296 13.2428 16.459 12.7559C16.5376 13.0969 16.4201 13.2763 16.1455 13.3486C15.6403 13.4817 15.1308 13.599 14.5538 13.7256C14.1155 13.745 13.7464 13.7617 13.3772 13.7784C13.3764 13.8182 13.3755 13.8579 13.3747 13.8977C13.7731 13.8977 14.1715 13.8977 14.57 13.8977C15.5838 13.7239 16.5977 13.5501 17.654 13.3618C17.9844 13.3919 18.1523 13.2926 18.1531 12.9927C18.6514 12.9228 18.8603 12.6189 18.9367 11.7902C19.1512 11.8205 19.3607 11.8502 19.64 11.8897C19.671 11.8817 19.7956 11.8493 19.9201 11.8169C19.952 11.9513 20.0202 12.0891 20.007 12.2192C19.9874 12.4135 19.9104 12.6024 19.8578 12.7935C19.8997 12.8128 19.9417 12.8321 19.9837 12.8514C20.0876 12.7403 20.1914 12.6292 20.3393 12.4712C20.3493 12.6331 20.3669 12.7372 20.3602 12.8397C20.2703 14.2304 20.1864 15.6215 20.0799 17.011C20.0388 17.5472 19.8515 17.6251 19.3366 17.4835C19.1509 17.4324 18.8914 17.487 18.7148 17.5801C18.3766 17.7585 18.1961 17.7226 18.0418 17.3722C17.9216 17.0993 17.8806 16.7061 17.4342 16.7895C17.03 16.8651 16.9727 17.2202 16.939 17.5494C16.8946 17.9837 16.8749 18.4204 16.8288 18.8545C16.8036 19.0911 16.7695 19.3315 16.6971 19.5576C16.5875 19.8995 16.372 20.1703 15.9647 20.1844C15.5348 20.1992 15.2268 19.9717 15.1005 19.5955C15.0044 19.309 14.9974 18.9912 14.976 18.6857C14.9544 18.3774 15.0151 18.0209 14.6057 17.9196C14.1961 17.8182 13.9115 18.0634 13.7858 18.3971C13.5781 18.9485 13.4177 19.5188 13.274 20.0897C13.1788 20.4679 13.1285 20.8525 12.6544 20.9648C12.2685 21.0562 11.8164 20.8569 11.5585 20.4302C11.3616 20.1045 11.2169 19.747 11.0738 19.3942C10.8582 18.8629 10.4926 18.5133 9.92782 18.3127C9.63968 18.2103 9.39273 17.9896 9.14165 17.8042C8.99266 17.6941 8.88281 17.5354 8.73625 17.4214C8.36046 17.1293 8.19242 17.1623 7.92844 17.5487C7.72808 17.842 7.5375 18.1433 7.31482 18.4203C7.05244 18.7466 6.6997 18.9401 6.25833 18.9288C5.83489 18.9179 5.55871 18.7347 5.42942 18.3162C5.16893 17.4729 5.01725 16.6262 5.07355 15.7389C5.10087 15.3084 5.00328 14.871 4.96873 14.4363C4.93806 14.0504 4.91636 13.6638 4.9638 13.2635C5.01821 13.3607 5.07262 13.4579 5.16605 13.6247C5.29056 13.314 5.39135 13.0624 5.4951 12.8034C5.69148 12.9113 5.85712 13.0023 6.02276 13.0933C6.04485 13.0717 6.06695 13.0501 6.08905 13.0285C5.96442 12.7894 5.8398 12.5502 5.71518 12.311C5.74213 12.2707 5.76908 12.2303 5.79603 12.19C6.06414 12.3143 6.33225 12.4386 6.63676 12.593C6.6996 12.6354 6.72604 12.6478 6.76579 12.6831C6.80448 12.7053 6.82986 12.7046 6.85524 12.7039C6.84406 12.6688 6.83288 12.6337 6.81802 12.5817C6.80239 12.5439 6.78557 12.5278 6.76387 12.5165C6.70054 12.3477 6.6372 12.1788 6.55098 11.9489C7.09713 11.8912 6.98621 12.5513 7.43821 12.5648C7.36502 12.3694 7.29737 12.1887 7.22781 12.003C7.49177 11.8962 7.58915 11.9686 7.72584 12.213C7.91765 12.5559 8.17841 12.9547 8.51753 13.1096C9.19442 13.4189 9.94466 13.5786 10.6957 13.736C10.3236 13.3758 9.7101 13.2407 9.81038 12.5078C10.394 13.0216 10.985 13.5032 11.8347 13.4666C11.7565 13.3965 11.6783 13.3263 11.5758 13.2344C12.0161 13.049 12.6997 13.5418 12.8673 12.7044C12.7132 12.7491 12.5803 12.7831 12.4506 12.8259C11.7986 13.0409 11.1525 13.0269 10.5388 12.7241C10.3501 12.6309 10.2148 12.4368 10.055 12.2889C10.0883 12.2462 10.1216 12.2036 10.1549 12.1609C10.3409 12.218 10.5245 12.314 10.7134 12.325C11.3038 12.3594 11.8964 12.3765 12.4877 12.3701C12.7725 12.367 12.9367 12.2066 12.876 11.9259C12.3864 11.9751 11.9034 12.0532 11.4194 12.0604C11.1539 12.0643 10.8733 11.9789 10.6237 11.878C10.3652 11.7735 10.2772 11.5559 10.4175 11.2377C11.179 11.6398 11.9584 11.6654 12.7504 11.4119C10.875 11.342 10.6207 11.2503 10.7093 10.6014C11.4159 10.9339 12.1372 11.1577 12.9637 10.8536C12.8542 10.8003 12.747 10.7058 12.6349 10.7001C11.3864 10.6374 10.3694 10.0848 9.41593 9.35589C9.15978 9.16007 8.80639 9.08277 8.50231 8.95306C8.73496 8.54257 9.27886 8.55572 9.77339 9.02511C10.4525 9.66966 11.2682 10.0986 12.1894 10.32C12.426 10.3769 12.7439 10.5401 12.9007 10.1332C12.9213 10.0797 13.21 10.1136 13.3736 10.1226C13.5756 10.1336 13.8056 10.2321 13.9731 10.1687C14.7179 9.88665 15.4591 9.58801 16.1731 9.2407C16.6973 8.98571 17.2271 8.93591 17.7867 8.99987C17.9945 9.02362 17.9932 9.03401 17.9046 9.26282C17.7698 9.29669 17.6957 9.32287 17.6215 9.34906ZM12.0024 20.5357C12.0615 20.5442 12.1207 20.5527 12.1798 20.5612C12.1353 20.5071 12.0908 20.453 12.0212 20.3451C11.8816 20.0297 11.7507 19.7104 11.5999 19.4001C11.475 19.1433 11.3265 18.8971 11.1427 18.622C11.1373 18.6651 11.1319 18.7081 11.148 18.8084C11.2623 19.0953 11.3602 19.3896 11.4954 19.667C11.634 19.9515 11.809 20.2194 12.0024 20.5357ZM7.44036 17.2566C7.07893 17.7037 6.7175 18.1508 6.289 18.6808C6.59344 18.5151 6.90219 18.4299 7.07379 18.2332C7.29782 17.9763 7.41326 17.6312 7.6215 17.2846C7.85657 17.0733 8.09164 16.8619 8.30802 16.6674C7.93595 16.4484 7.69124 16.5765 7.44036 17.2566ZM9.72853 14.2358C10.2936 14.2978 10.8587 14.3597 11.4237 14.4217C11.4281 14.3817 11.4326 14.3417 11.437 14.3017C10.5663 14.1599 9.69554 14.0181 8.82483 13.8764C8.81663 13.9167 8.80843 13.9569 8.80023 13.9972C9.08593 14.0706 9.37163 14.144 9.72853 14.2358ZM15.0464 15.0113C15.5245 14.9372 16.0026 14.8631 16.4808 14.789C16.4724 14.7363 16.464 14.6835 16.4556 14.6308C15.7926 14.7154 15.1296 14.7999 14.4665 14.8845C14.4676 14.9273 14.4687 14.9702 14.4698 15.0131C14.636 15.0131 14.8023 15.0131 15.0464 15.0113ZM18.3277 13.6991C18.5886 13.5071 18.8496 13.3151 19.1105 13.1232C19.0975 13.1044 19.0845 13.0856 19.0715 13.0668C18.5762 13.3175 18.0809 13.5682 17.5856 13.8188C17.6033 13.8601 17.6209 13.9014 17.6385 13.9427C17.8493 13.8712 18.0601 13.7997 18.3277 13.6991ZM17.0662 16.6965C17.082 16.6391 17.0978 16.5816 17.1137 16.5242C16.9967 16.5533 16.8471 16.5482 16.769 16.6178C16.524 16.8362 16.5067 17.4574 16.694 17.7593C16.7997 17.4345 16.9114 17.0915 17.0662 16.6965ZM5.41698 16.0109C5.42172 16.5758 5.24308 17.1604 5.58651 17.6892C5.59948 17.2601 5.5737 16.8346 5.5549 16.4088C5.54814 16.2556 5.5582 16.1017 5.56058 15.9482C5.51402 15.949 5.46746 15.9499 5.41698 16.0109ZM14.0962 17.6108C14.2503 17.5837 14.4043 17.5565 14.5886 17.5241C14.1215 17.2624 13.8964 17.3312 13.6165 17.8421C13.7896 17.7536 13.9101 17.692 14.0962 17.6108ZM7.39416 12.5093C7.40672 12.5761 7.41865 12.643 7.435 12.7088C7.43547 12.7107 7.48294 12.7017 7.50849 12.6978C7.49552 12.6438 7.48254 12.5898 7.39416 12.5093Z" fill="#F1E0C8"/>
<path d="M8.36698 24.8521C8.72146 25.0357 9.06007 25.2705 9.43539 25.3869C9.7418 25.4819 9.9809 25.3027 10.1272 24.9731C10.2929 24.5996 10.4789 24.2507 10.3172 23.7892C10.2445 23.898 10.1946 23.9728 10.1447 24.0476C10.1024 24.0432 10.0602 24.0388 10.0179 24.0344C10.0713 22.313 10.1247 20.5917 10.1781 18.8703C10.238 18.8662 10.298 18.862 10.358 18.8579C10.3942 19.0559 10.4305 19.2538 10.4803 19.5257C10.5673 19.3884 10.6178 19.3088 10.7211 19.1459C10.8878 19.5393 11.0413 19.8659 11.1656 20.2032C11.337 20.6681 11.5724 21.0599 12.0194 21.33C12.1764 21.4249 12.3097 21.6936 12.3132 21.8856C12.3332 22.9631 12.3357 24.0425 12.2891 25.1188C12.2711 25.5355 12.3942 25.7499 12.7925 25.7801C13.2846 25.8175 13.779 25.8432 14.2724 25.8421C14.6891 25.8412 14.9467 25.6528 14.879 25.182C14.8694 25.1154 14.8908 25.0442 14.9008 24.9461C15.0266 24.9356 15.1419 24.9259 15.2714 24.9151C15.2714 24.4682 15.2714 24.0318 15.2714 23.5406C15.1444 23.6114 15.0584 23.6593 14.9005 23.7473C14.9005 22.535 14.9005 21.3625 14.9005 20.174C15.2169 20.3657 15.5208 20.5493 15.5222 21.0304C15.5229 21.2814 15.6614 21.5409 15.7767 21.7777C15.8154 21.8572 15.9746 21.8782 16.0752 21.9243C15.9708 21.5927 15.8372 21.3398 15.8438 21.0905C15.846 21.0103 16.2176 20.9398 16.4709 20.8461C16.4435 20.639 16.4242 20.3366 16.8767 20.2989C16.9109 21.1305 16.9457 21.9611 16.9791 22.7918C17.0053 23.4445 17.0417 24.0973 17.0492 24.7503C17.0525 25.0351 17.171 25.109 17.4342 25.1128C17.9707 25.1204 18.4415 24.9631 18.8505 24.6221C19.148 24.3741 19.3164 24.0748 19.2997 23.6624C19.2278 21.889 19.1732 20.1148 19.1134 18.3408C19.1088 18.2017 19.1128 18.0623 19.1128 17.92C19.665 17.8058 19.4416 18.3545 19.6712 18.5862C19.7242 18.3866 19.7633 18.2392 19.8025 18.0918C19.853 18.0935 19.9035 18.0952 19.9541 18.097C19.9541 19.3338 19.9243 20.5714 19.9624 21.8071C20.0009 23.0577 20.1066 24.3063 20.1866 25.6177C20.4402 25.7585 20.4441 26.4884 20.0264 26.746C19.2071 27.2511 18.3936 27.8143 17.5 28.1407C14.7322 29.1516 11.8955 29.2814 9.04515 28.4726C8.11409 28.2085 7.31397 27.6998 6.65156 26.9827C6.42649 26.739 6.35153 26.4877 6.50061 26.1816C6.87854 26.4955 7.24315 26.7982 7.60776 27.101C7.63701 27.0794 7.66625 27.0579 7.69549 27.0363C7.66716 26.9589 7.65874 26.8626 7.6067 26.8075C7.46079 26.6531 7.29945 26.5127 7.13957 26.3721C6.6936 25.9799 6.51897 25.5208 6.57347 24.9016C6.6478 24.057 6.59419 23.2015 6.61128 22.351C6.61418 22.2064 6.6965 22.0634 6.74213 21.9197C6.78686 21.9288 6.83158 21.9379 6.8763 21.947C6.90438 22.1147 6.93245 22.2824 6.96053 22.4501C7.00275 22.4529 7.04496 22.4557 7.08718 22.4585C7.11993 22.0572 7.15268 21.6558 7.19826 21.1908C7.22761 21.0213 7.24412 20.9154 7.26064 20.8095C6.93354 21.1727 6.65385 21.4794 6.17982 21.0809C6.13083 20.4348 6.25802 20.2121 6.82686 20.0537C6.94987 19.8696 7.01003 19.69 7.07019 19.5104C7.02405 19.0452 7.43905 19.0611 7.73296 18.8482C7.73296 19.2636 7.73296 19.6166 7.73296 19.9696C7.76927 19.973 7.80557 19.9764 7.84188 19.9798C7.91175 19.4372 7.98161 18.8945 8.05148 18.3519C8.09791 18.3565 8.14433 18.3611 8.19075 18.3657C8.19689 18.4821 8.2129 18.5989 8.2077 18.7147C8.12629 20.527 8.04966 22.3395 7.95164 24.1509C7.93412 24.4747 8.01427 24.7024 8.33295 24.8495C8.36766 24.8448 8.36698 24.8521 8.36698 24.8521ZM18.1052 26.1769C14.3634 27.5883 10.6879 27.7421 7.09789 25.627C7.25579 25.8701 7.40981 26.154 7.64753 26.2799C9.22065 27.1132 10.8215 27.8046 12.687 27.679C13.8033 27.6037 14.9201 27.6536 15.9862 27.2291C16.959 26.8417 17.9467 26.4909 18.9135 26.0894C19.2339 25.9563 19.4849 25.7004 19.4459 25.2825C19.003 25.5799 18.5817 25.8627 18.1052 26.1769ZM16.0222 28.1719C16.1999 28.1177 16.3777 28.0635 16.5554 28.0093C16.5454 27.971 16.5354 27.9327 16.5254 27.8944C15.3222 28.1125 14.1189 28.3307 12.9157 28.5489C13.1327 28.625 13.3703 28.6997 13.5885 28.662C14.3813 28.5254 15.1676 28.3512 16.0222 28.1719ZM9.75105 25.7278C9.71062 25.6902 9.67606 25.6314 9.62884 25.6184C9.21226 25.5032 8.79396 25.394 8.37479 25.2884C8.2985 25.2692 8.21595 25.2749 8.13628 25.269C8.6093 25.6314 9.11364 25.8367 9.75105 25.7278ZM13.8346 26.1324C13.3861 26.1324 12.9375 26.1324 12.4454 26.1324C12.768 26.4225 13.7171 26.4755 13.9863 26.2512C13.9901 26.2481 13.9308 26.1693 13.8346 26.1324ZM11.0559 22.7304C11.4443 22.4854 11.5116 22.143 11.1105 21.7095C11.3678 22.315 10.9908 22.4227 10.5787 22.5838C10.7834 22.6602 10.8847 22.698 11.0559 22.7304ZM7.86896 20.2301C7.85865 20.1086 7.84834 19.9871 7.83803 19.8656C7.79897 19.8694 7.75991 19.8733 7.72085 19.8772C7.72085 20.1651 7.72085 20.453 7.72085 20.7409C7.74718 20.7438 7.7735 20.7467 7.79983 20.7497C7.8212 20.6033 7.84257 20.457 7.86896 20.2301Z" fill="#F1E0C8"/>
<path d="M4.33226 23.0639C4.61427 23.1339 4.93501 22.9489 5.17021 23.4239C3.88233 23.1624 2.57761 23.5792 1.50941 22.6667C1.56642 23.2492 1.79628 23.506 2.38823 23.5706C3.17646 23.6567 3.96702 23.7195 4.75609 23.7977C5.49798 23.8712 5.52685 23.9102 5.50639 24.8141C4.20973 24.7135 2.9161 24.6132 1.62247 24.5129C1.6151 24.551 1.60774 24.5892 1.60037 24.6274C1.83636 24.6775 2.07027 24.7504 2.30869 24.7738C3.27789 24.8688 4.24867 24.9464 5.2183 25.0369C5.33172 25.0475 5.44165 25.0983 5.55319 25.1305C5.54962 25.1667 5.54605 25.2029 5.54248 25.2391C5.48493 25.2609 5.42651 25.3039 5.36998 25.3014C4.16642 25.2473 2.95906 25.3839 1.75678 25.0781C1.44695 24.9993 1.05686 25.1089 0.846796 24.796C0.630768 24.4743 0.507608 24.0849 0.348596 23.7229C0.32652 23.6727 0.330501 23.6096 0.324734 23.5522C0.248338 22.7918 0.133704 22.033 0.104345 21.2706C0.0438415 19.6995 0.0231107 18.1265 0.000341495 16.5541C-0.00400716 16.2538 0.0335124 15.9472 0.0936959 15.6527C0.225448 15.0081 0.591316 14.5121 1.21768 14.3956C1.93652 14.2619 2.6776 14.253 3.41 14.2064C3.50946 14.2001 3.61458 14.2897 3.78431 14.3645C2.99763 14.4816 2.29793 14.5518 1.61269 14.696C0.71995 14.884 0.471291 15.2223 0.417111 16.1743C0.406803 16.3554 0.415632 16.5376 0.415632 16.7194C0.458116 16.7262 0.500599 16.733 0.543082 16.7398C0.581918 16.5354 0.631955 16.3325 0.657681 16.1264C0.77862 15.1574 0.920244 15.0002 1.84384 14.9072C2.53561 14.8375 3.22991 14.7465 3.92221 14.7538C4.20623 14.7569 4.4932 14.983 4.76639 15.1321C4.8222 15.1626 4.82241 15.3028 4.85447 15.4139C3.87675 15.498 2.89916 15.2348 2.00375 15.7079C2.002 15.7564 2.00025 15.805 1.99851 15.8536C2.96586 15.8536 3.93321 15.8536 4.90056 15.8536C4.90389 15.9171 4.90722 15.9806 4.91055 16.0441C4.79763 16.0652 4.68549 16.0946 4.57167 16.1061C3.8536 16.1787 3.13067 16.2162 2.41827 16.327C1.84172 16.4167 1.65927 16.656 1.5973 17.2481C1.42806 18.865 1.47862 20.4761 1.75291 22.0776C1.85712 22.6861 1.99685 22.8324 2.5911 22.9075C3.15633 22.9789 3.72607 23.0118 4.33226 23.0639Z" fill="#F1E0C8"/>
<path d="M11.9157 7.69577C11.9976 7.53159 12.0795 7.3674 12.1614 7.20321C12.2276 7.24298 12.2938 7.28274 12.3599 7.32251C12.2756 7.2551 12.1675 7.11489 12.1109 7.13195C11.707 7.25374 11.5975 6.94215 11.407 6.73646C11.3465 6.67113 11.2494 6.61902 11.1598 6.5993C10.6116 6.47855 10.0439 6.41575 9.5156 6.24177C9.02526 6.0803 8.67629 5.71987 8.64052 5.18231C8.60552 4.6564 8.99198 4.37612 9.39064 4.13264C9.57622 4.0193 9.79946 3.93103 10.0161 3.90113C11.9008 3.64103 13.7934 3.60966 15.5954 4.24972C16.4988 4.5706 17.3246 5.1195 18.1393 5.63272C18.6203 5.93567 18.6202 6.37511 18.2191 6.80479C18.0353 6.88191 17.9046 6.93534 17.7354 6.98674C17.5867 7.01739 17.4766 7.05005 17.3684 7.08013C17.3703 7.07755 17.3675 7.07181 17.3417 7.0406C16.8727 6.98837 16.4293 6.96735 15.9501 6.94463C16.2674 6.44461 16.6612 6.51736 17.0705 6.57888C17.2885 6.61163 17.5269 6.60388 17.7411 6.55458C18.0925 6.47372 18.1563 6.22227 17.8872 5.98718C17.6004 5.73671 17.3159 5.45458 16.975 5.29553C15.7515 4.72466 14.543 4.1841 13.1094 4.12514C11.8481 4.07326 10.6572 4.16517 9.47635 4.55837C9.0668 4.69474 8.93702 4.96506 9.23344 5.25193C9.53386 5.54267 9.94044 5.73181 10.2449 6.01961C10.5 6.26083 10.7517 6.30572 11.0157 6.24628C11.1454 5.90377 11.2603 5.60016 11.3772 5.2915C11.3117 5.28228 11.2057 5.26737 11.0998 5.25245C11.0757 5.20723 11.0517 5.16202 11.0277 5.1168C11.2559 4.96642 11.4768 4.69912 11.7136 4.6854C12.8971 4.61682 14.0898 4.55783 15.2334 4.97893C15.9362 5.23769 16.0715 5.4799 15.8053 6.16269C15.6707 6.50781 15.4596 6.82546 15.2805 7.16032C15.1295 7.25011 14.7781 7.02724 14.7875 7.42988C14.7491 7.4322 14.7337 7.43166 14.6909 7.43566C14.6137 7.48976 14.5639 7.53932 14.4945 7.59626C14.475 7.60363 14.4359 7.6185 14.4026 7.61134C14.2428 7.63639 14.1162 7.6686 13.9627 7.68967C13.8239 7.68697 13.7122 7.69539 13.5642 7.69966C13.4076 7.70506 13.2872 7.71463 13.1536 7.69924C12.7523 7.47108 13.0749 7.87623 12.8992 7.89518C12.8543 7.94823 12.8503 7.99594 12.8283 8.04195C12.777 8.02791 12.7436 8.01557 12.7519 8.00177C12.7415 7.92962 12.6896 7.85892 12.6061 7.7824C12.3549 7.74965 12.1353 7.72271 11.9157 7.69577ZM11.9739 5.44925C11.7963 5.60472 11.5314 5.73388 11.4691 5.9241C11.4205 6.07254 11.574 6.39343 11.7263 6.46553C11.9754 6.58347 12.3055 6.62228 12.5853 6.58453C13.0357 6.52377 13.1505 6.288 13.0864 5.78375C13.0383 5.40565 12.7267 5.40229 12.4436 5.38012C12.3125 5.36985 12.1768 5.41296 11.9739 5.44925ZM15.1257 5.68556C14.9647 5.65229 14.7997 5.63102 14.6435 5.58326C14.3148 5.48278 14.1477 5.58034 14.0655 5.9115C13.9312 6.45261 13.9446 6.49947 14.5032 6.60395C14.6357 6.62873 14.769 6.65192 14.9031 6.66632C15.2459 6.70313 15.3736 6.50049 15.3603 6.22398C15.3521 6.05098 15.2543 5.88191 15.1257 5.68556ZM13.2442 6.26321C13.1968 6.58392 12.8921 6.90858 13.2694 7.27815C13.3581 7.14028 13.4235 7.03861 13.4902 6.93503C13.5656 7.02237 13.6408 7.10961 13.7161 7.19685C13.756 7.18883 13.7958 7.18081 13.8356 7.17279C13.8211 6.8782 13.8243 6.58136 13.7844 6.28997C13.7644 6.14395 13.6656 6.00787 13.6025 5.86729C13.4914 5.9773 13.3804 6.0873 13.2442 6.26321Z" fill="#F1E0C8"/>
<path d="M12.6678 1.87782C13.5893 1.89623 14.4764 1.80842 15.3379 2.14934C15.7516 2.31304 15.9707 2.524 15.8993 2.99545C15.8829 3.10416 15.8969 3.21784 15.8969 3.36064C15.8133 3.36836 15.7292 3.37613 15.645 3.3839C15.6265 3.40524 15.608 3.42659 15.5895 3.44794C15.7405 3.51119 15.8915 3.57443 16.0425 3.63768C16.0016 3.66748 15.9607 3.69727 15.9197 3.72706C15.2219 3.58676 14.5288 3.40523 13.8249 3.31789C13.136 3.23242 12.4362 3.24297 11.7341 3.21105C11.6705 2.25544 11.8799 1.92879 12.6678 1.87782ZM15.4786 3.37498C15.508 3.36219 15.5373 3.3494 15.5667 3.3366C15.5243 3.33638 15.4819 3.33615 15.4786 3.37498Z" fill="#F1E0C8"/>
<path d="M7.57551 6.34135C7.67595 6.41347 7.78015 6.48121 7.87606 6.55863C8.0788 6.72226 8.06115 6.87132 7.87345 7.05258C7.71363 7.20692 7.53619 7.38643 7.47388 7.58635C7.18164 8.52393 6.64602 9.32219 6.05724 10.0999C5.75222 10.5028 5.52858 10.969 5.19249 11.3424C5.01054 11.5445 4.68042 11.65 4.39641 11.7259C4.21548 11.7742 3.99655 11.6885 3.75923 11.6645C3.72379 11.666 3.73189 11.669 3.73189 11.669C3.6524 11.3379 3.7161 11.1119 4.11966 11.0362C4.26634 11.0087 4.42499 10.8668 4.51092 10.7356C5.28735 9.54994 6.05331 8.35771 6.81056 7.16038C6.94559 6.94688 7.10199 6.7117 6.87277 6.44583C6.84371 6.41212 6.92401 6.28951 7.01918 6.19271C7.24832 6.232 7.41191 6.28668 7.57551 6.34135ZM5.22519 10.318C5.06189 10.5393 4.89859 10.7607 4.73529 10.982C4.78375 11.0139 4.8322 11.0458 4.88066 11.0776C5.10442 10.7737 5.32818 10.4697 5.55194 10.1657C5.50109 10.1236 5.45024 10.0815 5.39939 10.0394C5.35558 10.1152 5.31177 10.191 5.22519 10.318Z" fill="#F1E0C8"/>
<path d="M17.6206 9.39156C17.6873 9.33236 17.7612 9.30521 17.8647 9.27478C17.9146 9.30751 17.9373 9.3761 17.9551 9.37484C18.6659 9.32442 18.8744 10.0944 19.4636 10.2909C20.0308 10.4801 20.5301 10.8685 21.0687 11.1512C21.4631 11.3582 21.8631 11.5613 22.2784 11.7195C22.746 11.8977 22.8297 12.2712 22.8298 12.7396C22.6491 12.7974 22.5011 12.7948 22.3582 12.8208C22.1471 12.8592 21.9397 12.9179 21.7308 12.9679C21.4836 13.0008 21.5419 12.8774 21.5608 12.7077C21.5778 12.5551 21.5404 12.3199 21.4367 12.2423C20.3547 11.4317 19.2526 10.6486 17.9096 10.3156C17.8111 10.2912 17.695 10.2915 17.618 10.2366C17.4851 10.1418 17.3194 10.0295 17.2789 9.89159C17.2541 9.80698 17.4362 9.66066 17.5266 9.54304C17.5584 9.50171 17.594 9.46333 17.6206 9.39156Z" fill="#F1E0C8"/>
<path d="M18.8553 6.24865C18.9567 6.22138 19.0416 6.18037 19.0985 6.19626C19.6424 6.3482 20.1832 6.50683 20.7204 6.67184C20.7972 6.69544 20.867 6.75564 20.9112 6.81177C21.1553 7.12144 20.694 7.7468 20.2237 7.77228C20.0451 7.78195 19.8197 7.80737 19.7064 7.89338C19.4378 8.09742 19.1576 8.06159 18.8835 7.96242C18.5819 7.85329 18.4745 7.65405 18.5211 7.39338C18.5574 7.19049 18.4973 6.97632 18.5475 6.77678C18.5924 6.59814 18.7294 6.43262 18.8553 6.24865Z" fill="#F1E0C8"/>
<path d="M20.9787 17.2869C21.4755 16.665 21.2331 15.9559 21.3224 15.286C21.42 14.5543 21.5147 13.8223 21.6487 13.0442C22.0678 12.9898 22.4488 12.9815 22.8298 12.9732C22.8139 13.1258 22.8324 13.2881 22.7741 13.4285C22.6844 13.6443 22.4844 13.8356 22.4324 14.0539C22.257 14.7899 22.1035 15.5308 21.9897 16.2748C21.9433 16.5776 22.0202 16.8932 22.0053 17.2439C21.8804 17.2883 21.7911 17.2919 21.6755 17.2859C21.4257 17.2797 21.2022 17.2833 20.9787 17.2869ZM21.6833 14.7243C21.6456 15.0354 21.608 15.3466 21.5703 15.6577C21.6182 15.6631 21.6661 15.6685 21.7141 15.6739C21.8057 15.2036 21.8973 14.7333 21.9889 14.2629C21.9334 14.2527 21.8779 14.2425 21.8223 14.2323C21.7812 14.3746 21.7401 14.5169 21.6833 14.7243Z" fill="#F1E0C8"/>
<path d="M8.49561 10.2281C7.3374 10.8859 6.17931 11.5438 5.02095 12.2013C4.47166 12.5131 4.02077 12.3592 3.70212 11.711C3.81755 11.7329 3.90062 11.7487 4.01848 11.7543C4.05328 11.7441 4.04607 11.7414 4.04434 11.7387C4.13969 11.958 4.6667 12.1531 4.93056 11.9991C5.2339 11.822 5.48571 11.5603 5.7628 11.3388C6.03825 11.1187 6.30197 10.8798 6.59801 10.6901C7.16996 10.3237 7.79949 10.0345 8.33374 9.62358C8.90781 9.18199 8.93395 9.13718 9.48674 9.61912C9.52445 9.652 9.59356 9.6476 9.64388 9.66972C9.68094 9.68601 9.71118 9.7173 9.87233 9.83647C9.47734 9.94679 9.19502 10.0256 8.87331 10.0819C8.56086 9.80474 8.55801 10.0741 8.49561 10.2281Z" fill="#F1E0C8"/>
<path d="M14.6991 8.41432C14.7388 8.4687 14.7785 8.52308 14.8085 8.60197C14.724 8.68407 14.6149 8.73276 14.5798 8.80068C14.3609 9.2244 13.8985 9.31978 13.3419 9.25744C13.1096 9.23142 12.8656 9.17012 12.672 9.07745C12.352 8.92421 12.0685 8.73256 11.7234 8.52993C11.7234 8.41211 11.7234 8.24301 11.7322 8.04392C11.9739 8.03506 12.2068 8.05618 12.4688 8.10569C12.5266 8.17439 12.5552 8.21469 12.5837 8.255C12.6191 8.26467 12.6545 8.27435 12.7319 8.30639C12.8016 8.35808 12.8294 8.3874 12.8667 8.42722C12.9102 8.41547 12.9443 8.39322 13.0037 8.37327C13.0438 8.40904 13.0585 8.44252 13.0859 8.49548C13.185 8.50249 13.2715 8.49002 13.3884 8.47025C13.4447 8.40556 13.4706 8.34819 13.5171 8.29225C13.5656 8.29348 13.5927 8.29035 13.6298 8.30666C13.704 8.33706 13.7676 8.34509 13.8584 8.36465C13.9988 8.41305 14.1119 8.44992 14.2515 8.49844C14.3457 8.52674 14.431 8.56979 14.4776 8.55431C14.5634 8.52579 14.6265 8.46289 14.6991 8.41432Z" fill="#F1E0C8"/>
<path d="M20.0733 5.41879C19.7005 5.18144 19.6656 5.03647 19.8648 4.55241C20.1984 3.74186 20.6046 3.49091 21.1876 3.96741C21.417 4.15488 21.5173 4.75111 21.5949 5.19125C21.6137 5.29748 21.3087 5.52308 21.1459 5.72196C20.9601 5.88517 20.7836 6.14698 20.586 6.18615C20.3493 6.23308 20.1322 6.02995 20.1425 5.52511C20.3152 5.35899 20.4636 5.26446 20.6164 5.16705C20.597 4.62733 20.3134 4.76327 20.0733 4.73027C20.0733 4.97413 20.0733 5.19646 20.0733 5.41879Z" fill="#F1E0C8"/>
<path d="M23.4393 6.92632C23.4812 7.58431 23.3579 7.74346 22.7936 7.85095C22.6809 7.87241 22.5801 7.95238 22.4705 7.99712C22.1642 8.12223 21.8866 7.9774 21.7906 7.6633C21.7473 7.52193 21.6263 7.39482 21.6161 7.25554C21.5979 7.00608 21.5613 6.70596 21.6751 6.51454C21.7715 6.35228 22.0618 6.28277 22.2799 6.22615C22.8602 6.07546 23.1631 6.4561 23.4393 6.92632Z" fill="#F1E0C8"/>
<path d="M22.359 19.8047C22.259 19.8255 22.1591 19.8464 22.0068 19.8917C21.8531 19.8902 21.7519 19.8642 21.6506 19.8383C21.6438 19.8207 21.637 19.8032 21.6376 19.7344C21.6407 19.6193 21.6365 19.5555 21.6324 19.4916C21.6092 19.0546 21.586 18.6175 21.6 18.1372C21.7079 18.0645 21.7786 18.0351 21.8787 17.9935C21.9395 17.9548 21.971 17.9282 22.0023 17.9046C22.0021 17.9075 22.0082 17.909 22.041 17.9149C22.1671 17.9738 22.2604 18.0269 22.3802 18.1065C22.4999 18.3339 22.5865 18.5377 22.6878 18.7351C22.899 19.1463 23.118 19.5542 23.3338 19.9635C23.3714 20.063 23.4091 20.1626 23.4468 20.2622C23.4187 20.2982 23.3906 20.3342 23.3624 20.3702C23.228 20.2713 23.0936 20.1724 22.9294 20.0553C22.8995 20.0371 22.9071 20.0341 22.9042 20.0087C22.8952 19.967 22.8891 19.9509 22.8838 19.8974C22.6658 19.4157 22.4472 18.9713 22.2285 18.5269C22.1843 18.5412 22.1402 18.5555 22.096 18.5698C22.1929 18.8475 22.3053 19.1218 22.3798 19.4045C22.4126 19.529 22.3683 19.6708 22.359 19.8047ZM21.9487 19.6226C21.964 19.6296 21.9787 19.6386 21.9948 19.6429C22.0065 19.6459 22.0201 19.6426 22.0329 19.6421C22.0007 19.4277 21.9686 19.2133 21.9364 18.9989C21.8928 19.0063 21.8491 19.0138 21.8054 19.0212C21.8374 19.2014 21.8694 19.3817 21.9487 19.6226Z" fill="#F1E0C8"/>
<path d="M17.3348 10.6696C17.0808 10.6476 16.8702 10.6271 16.6596 10.6066C16.6767 10.5744 16.6937 10.5422 16.7108 10.51C17.8111 10.4864 18.8131 10.6344 19.7447 10.9583C19.0641 11.2258 18.6322 11.1612 18.2355 10.8261C18.1159 10.7251 17.6731 10.72 17.3348 10.6696Z" fill="#F1E0C8"/>
<path d="M9.776 10.7361C10.0041 10.5087 10.3803 10.5054 10.7282 10.508C10.8598 10.509 11.0644 10.5953 11.0987 10.6642C11.1338 10.7346 11.0431 10.8703 10.9323 10.9086C10.7107 10.9854 10.4428 11.028 10.1845 11.0608C9.92104 11.0942 9.64609 11.099 9.25531 11.1242C9.45962 10.9716 9.6069 10.8616 9.776 10.7361Z" fill="#F1E0C8"/>
<path d="M23.0759 19.749C22.8553 19.4305 22.6653 19.1098 22.4821 18.7865C22.3942 18.6313 22.3191 18.4711 22.2221 18.263C22.2128 18.0602 22.1583 17.8693 22.4751 17.9101C22.7937 18.4315 23.1177 18.9506 23.4243 19.4769C23.4642 19.5454 23.4492 19.6738 23.3946 19.7309C23.3545 19.7728 23.2082 19.7433 23.0759 19.749Z" fill="#F1E0C8"/>
<path d="M4.31914 2.83549C4.27156 3.12706 4.22397 3.41863 4.17364 3.72706C3.69177 3.51955 3.69378 3.21006 3.83925 2.90631C3.98653 2.59878 3.92232 2.34303 3.74279 2.04011C3.61361 1.82213 3.82137 1.52617 3.95873 1.26141C4.08477 1.46517 4.13929 1.67195 4.17512 1.87998C4.2299 2.19803 4.27178 2.51694 4.31914 2.83549Z" fill="#F1E0C8"/>
<path d="M15.4255 8.04194C15.4367 7.97596 15.4708 7.8559 15.5253 7.83214C16.1407 7.56363 16.7592 7.30988 17.3759 7.00517C17.375 6.95818 17.3773 6.9653 17.4019 7.00572C17.5217 7.01824 17.6168 6.99034 17.74 6.96486C17.876 6.9276 17.9841 6.88792 18.0921 6.84823C18.1847 6.82326 18.2773 6.7983 18.4184 6.81402C18.4815 6.87919 18.4961 6.90366 18.5106 6.92813C18.1672 7.05213 17.8238 7.17614 17.4247 7.2992C17.2608 7.33729 17.1525 7.37631 16.9994 7.43148C17.0894 7.51809 17.1349 7.56187 17.1804 7.60565C16.6062 7.74796 16.0321 7.89028 15.4255 8.04194Z" fill="#F1E0C8"/>
<path d="M13.9439 25.9174C13.5708 25.9138 13.2343 25.9297 12.9082 25.8961C12.3206 25.8354 12.2866 25.7846 12.3799 25.3015C12.4514 25.3794 12.5001 25.4325 12.5489 25.4856C12.5922 25.5327 12.6356 25.5799 12.7076 25.6583C12.7472 25.5467 12.7734 25.4731 12.7678 25.4888C13.4248 25.5578 14.0564 25.624 14.8085 25.7029C14.4933 25.7839 14.2392 25.8492 13.9439 25.9174Z" fill="#F1E0C8"/>
<path d="M8.68067 18.0653C10.1628 18.6225 9.91383 19.5017 9.73855 20.3702C9.63596 19.4473 9.34565 18.58 8.02127 18.0078C8.08997 17.9734 8.15868 17.939 8.22738 17.9046C8.36691 17.9527 8.50645 18.0008 8.68067 18.0653Z" fill="#F1E0C8"/>
<path d="M18.8966 19.4602C18.9768 20.61 19.0522 21.7192 19.1277 22.8283C19.0509 22.8309 18.9741 22.8334 18.8973 22.8359C18.7684 21.1967 18.6395 19.5576 18.5107 17.9185C18.5784 17.9139 18.6461 17.9092 18.7138 17.9046C18.7732 18.4096 18.8325 18.9146 18.8966 19.4602Z" fill="#F1E0C8"/>
<path d="M13.0222 21.6454C12.8737 22.0651 13.0588 22.5099 12.5869 22.8359C12.5186 22.8323 12.4503 22.8287 12.3821 22.8252C12.3821 22.411 12.264 21.976 12.4253 21.5904C12.5257 21.3504 13.0487 21.1853 13.382 20.9866C13.4462 21.026 13.5103 21.0653 13.5745 21.1047C13.3937 21.2738 13.213 21.4429 13.0222 21.6454Z" fill="#F1E0C8"/>
<path d="M4.71236 1.50494C4.70719 1.5623 4.67469 1.63962 4.70088 1.6741C5.26207 2.41304 4.66002 3.04987 4.53077 3.72706C4.4905 3.72436 4.45023 3.72165 4.40996 3.71894C4.42387 3.51509 4.43777 3.31124 4.47843 3.04688C4.71732 2.58411 4.75264 2.20009 4.4546 1.80712C4.35329 1.67353 4.3443 1.47265 4.31915 1.28796C4.38201 1.26295 4.41884 1.2525 4.45823 1.27033C4.51863 1.36546 4.57645 1.4323 4.65367 1.50226C4.67306 1.50536 4.71236 1.50494 4.71236 1.50494Z" fill="#F1E0C8"/>
<path d="M6.71756 4.96003C6.02836 4.92376 5.27144 4.98571 4.93616 4.38925C5.4596 4.25203 5.86743 4.45526 6.37617 4.5794C6.559 4.59711 6.66319 4.61218 6.78722 4.64948C6.77724 4.76783 6.7474 4.86393 6.71756 4.96003Z" fill="#F1E0C8"/>
<path d="M18.333 13.256C18.3285 13.5403 18.193 13.6257 17.9405 13.5766C17.9167 13.5541 17.913 13.5421 17.9216 13.5068C17.9205 13.435 17.9071 13.3865 17.8936 13.338C17.9822 13.1103 18.0634 12.879 18.1628 12.6563C18.2057 12.56 18.2861 12.4815 18.3774 12.3568C18.5796 12.7267 18.5412 12.9862 18.333 13.256Z" fill="#F1E0C8"/>
<path d="M14.4196 20.9866C14.3413 20.285 14.2558 19.5845 14.1924 18.8807C14.1826 18.7726 14.2559 18.5774 14.3238 18.5495C14.454 18.4961 14.6078 18.534 14.8085 18.534C14.4209 19.3656 14.6361 20.1438 14.5274 20.9235C14.4755 20.9739 14.4476 20.9803 14.4196 20.9866Z" fill="#F1E0C8"/>
<path d="M8.02127 5.85341C8.02118 5.88784 8.02109 5.92228 7.99498 5.97488C7.71535 5.80868 7.70192 6.12167 7.57165 6.1927C7.56614 6.14889 7.56063 6.10507 7.5516 5.99888C7.49562 5.81854 7.46068 5.68669 7.38488 5.58725C7.32938 5.51443 7.2202 5.48419 7.13494 5.43497C7.13386 5.52698 7.10117 5.63646 7.1387 5.70714C7.20347 5.8291 7.31188 5.92695 7.40198 6.03492C7.38838 6.0559 7.37478 6.07688 7.31645 6.1154C7.18429 6.08961 7.09686 6.04627 7.00888 6.00527C7.00834 6.00759 7.01302 6.00762 7.03792 5.9855C6.97608 5.79803 6.88626 5.63424 6.80461 5.46632C6.78202 5.41987 6.78373 5.36113 6.79678 5.32167C6.889 5.20951 6.95874 5.08371 7.05465 4.95988C7.2417 5.12454 7.36033 5.43614 7.65394 5.13106C7.67473 5.14014 7.69552 5.14923 7.73241 5.1961C7.6622 5.30748 7.57589 5.38108 7.42983 5.50562C7.66669 5.64491 7.84398 5.74916 8.02127 5.85341Z" fill="#F1E0C8"/>
<path d="M8.17439 23.4523C8.1821 23.4987 8.2013 23.5461 8.19583 23.5914C8.06774 24.6536 8.02161 24.9138 9.87233 25.1957C9.71035 25.2327 9.53476 25.3227 9.3889 25.297C8.9357 25.2169 8.49378 25.093 8.03879 25.0338C8.03011 25.0815 8.03102 25.0734 8.02603 25.075C8.01819 24.563 8.01534 24.0494 8.05586 23.4945C8.12427 23.4529 8.14933 23.4526 8.17439 23.4523Z" fill="#F1E0C8"/>
<path d="M22.931 20.6551C23.0012 20.8058 23.0714 20.9564 23.167 21.1616C23.1777 20.8297 23.185 20.5999 23.1924 20.3702C23.2454 20.3963 23.3289 20.3968 23.3457 20.4535C23.3939 20.6156 23.415 20.8006 23.4468 20.9765C23.3564 21.0044 23.266 21.0323 23.1575 21.0658C23.1669 21.1879 23.1804 21.3618 23.199 21.603C22.9553 21.4502 22.7948 21.2854 22.8363 20.7858C22.8695 20.7014 22.9002 20.6783 22.931 20.6551Z" fill="#F1E0C8"/>
<path d="M4.63412 1.87635C4.65102 1.66802 4.68339 1.46317 4.71577 1.21781C4.67505 1.08342 4.64914 0.964455 4.59116 0.899786C4.24936 0.518546 4.24223 0.378675 4.49954 0.0285788C4.58367 0.249539 4.64019 0.547931 4.77804 0.730109C5.10515 1.16242 4.84738 1.4729 4.6952 1.84974C4.68094 1.87934 4.64959 1.87982 4.63412 1.87635Z" fill="#F1E0C8"/>
<path d="M8.02127 12.2782C8.27524 11.9929 8.47161 11.7194 9.25531 11.7417C9.10028 12.1154 8.94595 12.4874 8.74436 12.9733C8.45032 12.71 8.22628 12.5094 8.02127 12.2782Z" fill="#F1E0C8"/>
<path d="M18.6531 24.5839C18.8119 24.4009 18.9574 24.2267 19.0893 24.0687C19.2251 24.4052 18.9932 24.7042 18.5107 24.6843C18.5707 24.6417 18.6053 24.6171 18.6531 24.5839Z" fill="#F1E0C8"/>
<path d="M6.17023 21.2404C6.71415 21.5496 7.03225 21.2919 7.40427 20.9866C7.38549 21.0756 7.3667 21.1647 7.32906 21.2756C7.23775 21.3402 7.16084 21.3792 7.0936 21.4259C6.68458 21.7097 6.36989 21.6562 6.17023 21.2404Z" fill="#F1E0C8"/>
<path d="M22.8298 20.8289C22.7546 20.9041 22.7 20.9318 22.6264 20.9866C22.5067 20.8846 22.3654 20.7732 22.3147 20.6223C22.2327 20.3784 22.2102 20.1085 22.213 19.7915C22.3724 19.7386 22.4815 19.7438 22.6023 19.7921C22.6533 19.8439 22.6926 19.8527 22.7319 19.8615C22.7319 19.8615 22.7238 19.8653 22.7223 19.8607C22.764 20.1644 22.8072 20.4729 22.8298 20.8289Z" fill="#F1E0C8"/>
<path d="M21.1443 20.3702C21.7224 20.5403 21.6471 20.7499 21.4563 20.9665C21.3592 20.9732 21.2621 20.98 21.165 20.9868C21.1122 20.8111 21.0594 20.6355 20.9787 20.4385C21.0153 20.4015 21.0798 20.3859 21.1443 20.3702Z" fill="#F1E0C8"/>
<path d="M22.7587 17.5638C22.2993 17.5494 22.3761 17.7313 22.3569 17.9047C22.2329 17.8929 22.1186 17.8531 21.9577 17.7802C21.7903 17.6649 21.6695 17.5828 21.5957 17.4947C21.7707 17.4271 21.8985 17.3654 22.0264 17.3037C22.1461 17.3004 22.2658 17.2971 22.4304 17.2882C22.7595 17.2997 22.938 17.3558 22.7587 17.5638Z" fill="#F1E0C8"/>
<path d="M22.7624 19.7538C22.6785 19.7503 22.5946 19.7467 22.4789 19.7493C22.4399 19.7279 22.4327 19.7003 22.4258 19.6513C22.4337 19.5136 22.4697 19.3906 22.4431 19.2826C22.3827 19.0372 22.2915 18.7992 22.2128 18.5582C22.2486 18.5458 22.2845 18.5334 22.3203 18.521C22.4978 18.9066 22.6752 19.2923 22.8298 19.7127C22.7921 19.7496 22.7773 19.7517 22.7624 19.7538Z" fill="#F1E0C8"/>
<path d="M6.78723 4.43244C6.78723 4.43244 6.7968 4.41489 6.79704 4.42048C6.80899 4.40962 6.8207 4.39316 6.89177 4.34347C7.23105 4.3665 7.51096 4.42276 7.79087 4.47902C7.86338 4.57385 7.93588 4.66868 8.02127 4.79442C7.46636 5.16812 7.23696 4.81801 6.86652 4.63535C6.80719 4.63551 6.81371 4.64625 6.83802 4.6113C6.8373 4.52837 6.81226 4.48041 6.78723 4.43244Z" fill="#F1E0C8"/>
<path d="M9.52266 12.2761C9.4871 12.3155 9.45836 12.3362 9.42962 12.357C9.06671 12.2056 9.29743 11.8414 9.87233 11.7404C9.75141 11.9228 9.64044 12.0901 9.52266 12.2761Z" fill="#F1E0C8"/>
<path d="M21.223 20.2172C21.1347 20.2962 21.0776 20.3267 20.9997 20.3702C20.9787 20.008 20.9787 19.6327 20.9787 19.1374C21.2464 19.3712 21.3703 19.4795 21.5378 19.5483C21.5864 19.585 21.5913 19.6612 21.5958 19.7661C21.3462 19.6914 21.3462 19.6914 21.223 20.2172Z" fill="#F1E0C8"/>
<path d="M22.8298 12.8174C22.4557 12.9066 22.0778 12.9262 21.6628 12.9734C21.6167 12.965 21.6078 12.9289 21.5957 12.8329C21.8201 12.6654 22.0457 12.5392 22.2754 12.4567C22.4309 12.4008 22.592 12.4063 22.7846 12.3568C22.8211 12.4689 22.8235 12.6083 22.8298 12.8174Z" fill="#F1E0C8"/>
<path d="M21.8877 20.3702C21.9896 20.5358 22.0914 20.7013 22.2128 20.8984C22.051 20.9241 21.8893 20.9498 21.6567 20.9868C21.6117 20.775 21.5748 20.6016 21.6094 20.4008C21.7498 20.3724 21.8188 20.3713 21.8877 20.3702Z" fill="#F1E0C8"/>
<path d="M17.4398 12.6774C17.4669 12.4992 17.484 12.3423 17.8936 12.3579C17.8194 12.582 17.7587 12.7971 17.2766 12.9734C17.3581 12.83 17.3951 12.7648 17.4398 12.6774Z" fill="#F1E0C8"/>
<path d="M6.84066 4.34362C6.82285 4.16284 6.80504 3.98206 6.78723 3.80128C6.84967 3.77654 6.91211 3.7518 6.97455 3.72706C7.11536 3.85396 7.25618 3.98086 7.40425 4.16925C7.22123 4.26837 7.03094 4.30599 6.84066 4.34362Z" fill="#F1E0C8"/>
<path d="M6.94309 6.04664C6.93973 5.96887 6.95379 5.89882 6.9238 5.8396C6.87899 5.75109 6.80317 5.6702 6.78723 5.5763C6.92301 5.6343 7.0121 5.70208 7.10119 5.76986C7.10119 5.76986 7.09656 5.76984 7.09725 5.7869C7.20004 5.89922 7.30215 5.99447 7.40425 6.08972C7.4 6.11719 7.39574 6.14466 7.39084 6.19286C7.25756 6.18179 7.12493 6.14999 6.96217 6.11376C6.9302 6.09222 6.93312 6.07552 6.94309 6.04664Z" fill="#F1E0C8"/>
<path d="M7.84519 6.1927C7.67946 5.98075 7.52339 5.77771 7.43016 5.52463C7.37613 5.37797 7.42318 5.15081 7.42475 4.95988C7.54748 5.062 7.70465 5.12476 7.78455 5.27585C7.89367 5.4822 7.94396 5.7558 8.02129 6.06139C7.97581 6.14168 7.92851 6.16115 7.84519 6.1927Z" fill="#F1E0C8"/>
<path d="M21.6876 17.865C21.4892 17.8884 21.3533 17.895 21.1663 17.9047C21.0725 17.7578 21.0297 17.6078 20.9787 17.3775C21.3689 17.2879 21.7673 17.2785 22.2128 17.2946C22.0899 17.496 21.92 17.6721 21.6876 17.865Z" fill="#F1E0C8"/>
<path d="M6.17237 3.72706C6.33536 3.73419 6.49791 3.8089 6.71687 3.94055C6.77794 4.28547 6.7826 4.57344 6.78725 4.86142C6.78725 4.86142 6.73742 4.92699 6.71258 4.95989C6.54718 4.95242 6.40662 4.91207 6.21362 4.85408C6.16476 4.48919 6.16834 4.14192 6.17237 3.72706Z" fill="#F1E0C8"/>
<path d="M6.78723 4.20836C7.03547 4.04491 7.28806 3.96132 7.55515 3.80006C7.59811 3.72384 7.62655 3.72529 7.69768 3.72793C7.82725 4.0882 7.91413 4.44728 8.02127 4.87277C8.00724 4.94849 7.97294 4.95779 7.88637 4.95989C7.54099 4.82475 7.24789 4.69682 6.90117 4.58454C6.8289 4.49621 6.81024 4.39222 6.78723 4.20836Z" fill="#F1E0C8"/>
<path d="M18.5106 7.1591C18.3354 7.31585 18.1604 7.40282 17.9385 7.42568C17.8916 7.36156 17.8936 7.24389 17.8936 7.24389C18.0689 7.09855 18.2442 6.95321 18.4624 6.80912C18.5072 6.90335 18.509 6.99633 18.5106 7.1591Z" fill="#F1E0C8"/>
<path d="M22.2128 20.298C22.16 20.3628 22.076 20.3657 21.9292 20.3704C21.7754 20.186 21.6846 19.9999 21.5957 19.756C21.7492 19.7432 21.9006 19.7883 22.0979 19.846C22.1563 19.9845 22.169 20.1103 22.2128 20.298Z" fill="#F1E0C8"/>
<path d="M14.8085 8.49151C14.7429 8.56467 14.6832 8.62706 14.6021 8.65535C14.5581 8.67071 14.4775 8.62801 14.3854 8.57136C14.3285 8.46274 14.2996 8.39425 14.2609 8.31816C14.23 8.30426 14.2135 8.30823 14.1941 8.30019C14.1884 8.24741 14.1898 8.21692 14.2224 8.18986C14.3496 8.14861 14.4458 8.10393 14.542 8.05925C14.542 8.05925 14.5811 8.04768 14.6007 8.04195C14.6821 8.17966 14.7438 8.32309 14.8085 8.49151Z" fill="#F1E0C8"/>
<path d="M13.5739 8.40358C13.5527 8.48256 13.5316 8.56154 13.4809 8.62699C13.377 8.62848 13.3026 8.64349 13.2283 8.65851C13.2162 8.61242 13.2042 8.56633 13.1439 8.52646C13.081 8.54742 13.0664 8.56216 13.0518 8.57691C13.0291 8.53654 13.0064 8.49618 12.9649 8.42686C12.9497 8.3464 12.9532 8.2949 13.0193 8.25575C13.1292 8.19643 13.1765 8.12476 13.2238 8.05309C13.3282 8.04277 13.4325 8.03244 13.5572 8.05759C13.5764 8.19656 13.5751 8.30007 13.5739 8.40358ZM13.4207 8.30358C13.4266 8.2659 13.4325 8.22822 13.4384 8.19055C13.4095 8.19267 13.3807 8.19479 13.3518 8.19691C13.3591 8.23191 13.3664 8.26691 13.4207 8.30358Z" fill="#F1E0C8"/>
<path d="M17.8309 6.80912C17.8943 6.8189 17.8918 7.02827 17.8936 7.13288C17.7065 7.34629 17.5176 7.45507 17.2766 7.41879C17.4056 7.11558 17.5865 6.95746 17.8309 6.80912Z" fill="#F1E0C8"/>
<path d="M5.32246 10.6578C5.37172 10.5976 5.40482 10.5526 5.43792 10.5076C5.47634 10.5326 5.51476 10.5576 5.55318 10.5826C5.38412 10.7631 5.21505 10.9436 5.04599 11.1242C5.00938 11.1052 4.97277 11.0863 4.93616 11.0674C5.05954 10.9359 5.18292 10.8045 5.32246 10.6578Z" fill="#F1E0C8"/>
<path d="M21.7738 14.599C21.846 14.4495 21.9066 14.3278 21.9672 14.2061C22.049 14.2148 22.1309 14.2236 22.2128 14.2323C22.0777 14.6345 21.9427 15.0367 21.8076 15.4389C21.737 15.4343 21.6664 15.4297 21.5957 15.4251C21.6512 15.159 21.7067 14.8929 21.7738 14.599Z" fill="#F1E0C8"/>
<path d="M21.9202 19.7044C21.7692 19.5031 21.6825 19.3309 21.5957 19.1587C21.7142 19.1516 21.8327 19.1445 21.9512 19.1374C22.0384 19.3422 22.1256 19.5471 22.2128 19.752C22.1782 19.7524 22.1412 19.7556 22.1096 19.7527C22.0658 19.7487 22.026 19.74 21.9202 19.7044Z" fill="#F1E0C8"/>
</svg>
