<svg width="249" height="105" viewBox="0 0 249 105" fill="none" xmlns="http://www.w3.org/2000/svg">
<path d="M1.7408 70V52.08H7.8336C9.89867 52.08 11.6139 52.4555 12.9792 53.2064C14.3445 53.9403 15.3515 54.9813 16 56.3296C16.6656 57.6608 16.9984 59.2309 16.9984 61.04C16.9984 62.832 16.6656 64.4021 16 65.7504C15.3515 67.0987 14.3445 68.1483 12.9792 68.8992C11.6309 69.6331 9.9072 70 7.808 70H1.7408ZM5.3248 66.928H7.6288C9.0624 66.928 10.1888 66.6976 11.008 66.2368C11.8443 65.7589 12.4416 65.0848 12.8 64.2144C13.1584 63.3269 13.3376 62.2688 13.3376 61.04C13.3376 59.8112 13.1584 58.7616 12.8 57.8912C12.4416 57.0037 11.8443 56.3211 11.008 55.8432C10.1888 55.3653 9.0624 55.1264 7.6288 55.1264H5.3248V66.928ZM17.6132 70L24.1412 52.08H28.2116L34.7396 70H30.9508L26.1636 56.1504L21.3508 70H17.6132ZM20.4804 65.9808L21.4276 63.1904H30.6436L31.5652 65.9808H20.4804ZM43.2616 70.3072C41.9645 70.3072 40.804 70.0853 39.78 69.6416C38.7731 69.1979 37.9709 68.5493 37.3736 67.696C36.7763 66.8427 36.4691 65.8101 36.452 64.5984H40.2408C40.2579 65.1104 40.3859 65.5712 40.6248 65.9808C40.8808 66.3904 41.2307 66.7147 41.6744 66.9536C42.1181 67.1925 42.6387 67.312 43.236 67.312C43.7651 67.312 44.2173 67.2267 44.5928 67.056C44.9853 66.8853 45.284 66.6464 45.4888 66.3392C45.7107 66.032 45.8216 65.6565 45.8216 65.2128C45.8216 64.7349 45.6936 64.3253 45.4376 63.984C45.1987 63.6427 44.8659 63.3525 44.4392 63.1136C44.0125 62.8747 43.5176 62.6613 42.9544 62.4736C42.4083 62.2688 41.8195 62.064 41.188 61.8592C39.7715 61.3984 38.6877 60.784 37.9368 60.016C37.2029 59.248 36.836 58.224 36.836 56.944C36.836 55.8517 37.092 54.9216 37.604 54.1536C38.1331 53.3856 38.8584 52.7968 39.78 52.3872C40.7187 51.9776 41.7768 51.7728 42.9544 51.7728C44.1661 51.7728 45.2328 51.9861 46.1544 52.4128C47.076 52.8224 47.8013 53.4197 48.3304 54.2048C48.8765 54.9899 49.1667 55.92 49.2008 56.9952H45.3608C45.3437 56.6027 45.2328 56.2443 45.028 55.92C44.8232 55.5787 44.5416 55.3056 44.1832 55.1008C43.8248 54.896 43.3981 54.7936 42.9032 54.7936C42.4765 54.7765 42.084 54.8448 41.7256 54.9984C41.3843 55.1349 41.1112 55.3483 40.9064 55.6384C40.7016 55.9115 40.5992 56.2613 40.5992 56.688C40.5992 57.1147 40.7016 57.4731 40.9064 57.7632C41.1112 58.0363 41.3928 58.2752 41.7512 58.48C42.1267 58.6848 42.5619 58.8811 43.0568 59.0688C43.5517 59.2395 44.0893 59.4187 44.6696 59.6064C45.5741 59.9136 46.4019 60.2805 47.1528 60.7072C47.9037 61.1168 48.5011 61.6544 48.9448 62.32C49.4056 62.9856 49.636 63.8645 49.636 64.9568C49.636 65.9125 49.3885 66.8 48.8936 67.6192C48.3987 68.4213 47.6819 69.0699 46.7432 69.5648C45.8045 70.0597 44.644 70.3072 43.2616 70.3072ZM63.8554 70V52.08H67.4394V70H63.8554ZM52.5658 70V52.08H56.1498V70H52.5658ZM55.689 62.2944V59.4016H64.4442V62.2944H55.689Z" fill="#010101"/>
<path d="M187.741 70V52.08H195.19C196.436 52.08 197.486 52.2763 198.339 52.6688C199.193 53.0613 199.841 53.6075 200.285 54.3072C200.729 54.9899 200.95 55.792 200.95 56.7136C200.95 57.6011 200.754 58.352 200.362 58.9664C199.969 59.5808 199.449 60.0587 198.8 60.4C198.169 60.7243 197.469 60.912 196.701 60.9632L197.11 60.6816C197.93 60.7157 198.655 60.9376 199.286 61.3472C199.935 61.7568 200.438 62.2944 200.797 62.96C201.172 63.6085 201.36 64.3253 201.36 65.1104C201.36 66.0661 201.13 66.9195 200.669 67.6704C200.208 68.4043 199.534 68.976 198.646 69.3856C197.776 69.7952 196.709 70 195.446 70H187.741ZM191.325 67.0816H194.883C195.788 67.0816 196.487 66.8768 196.982 66.4672C197.477 66.0405 197.725 65.4432 197.725 64.6752C197.725 63.9072 197.469 63.3013 196.957 62.8576C196.445 62.4139 195.737 62.192 194.832 62.192H191.325V67.0816ZM191.325 59.5296H194.602C195.472 59.5296 196.138 59.3333 196.598 58.9408C197.059 58.5312 197.29 57.9595 197.29 57.2256C197.29 56.5088 197.059 55.9541 196.598 55.5616C196.138 55.152 195.463 54.9472 194.576 54.9472H191.325V59.5296ZM204.141 70V52.08H215.994V54.9728H207.725V59.504H215.226V62.2944H207.725V67.1072H215.994V70H204.141ZM219.116 70V52.08H230.969V54.9728H222.7V59.504H230.201V62.2944H222.7V67.1072H230.969V70H219.116ZM234.091 70V52.08H240.875C242.325 52.08 243.52 52.3275 244.459 52.8224C245.415 53.3173 246.123 53.9829 246.584 54.8192C247.061 55.6384 247.3 56.56 247.3 57.584C247.3 58.5397 247.07 59.4357 246.609 60.272C246.165 61.1083 245.466 61.7824 244.51 62.2944C243.554 62.7893 242.334 63.0368 240.849 63.0368H237.675V70H234.091ZM243.358 70L239.697 62.1408H243.588L247.454 70H243.358ZM237.675 60.4256H240.67C241.677 60.4256 242.419 60.1781 242.897 59.6832C243.392 59.1883 243.64 58.5312 243.64 57.712C243.64 56.9099 243.401 56.2699 242.923 55.792C242.445 55.3141 241.685 55.0752 240.644 55.0752H237.675V60.4256Z" fill="#010101"/>
<path d="M147.391 33.7799C146.733 33.8782 146.031 33.8774 145.422 34.0906C141.158 35.5828 136.912 37.1193 132.615 38.6579C132.423 39.8669 133.13 40.3155 134.352 40.0725C136.033 39.7385 137.683 39.278 139.346 38.8737C139.827 38.7569 140.309 38.6471 140.907 38.5068C140.334 41.4172 137.532 42.1464 131.71 41.1482C131.774 42.4593 131.773 42.4646 133.104 42.8015C136.387 43.6327 139.56 43.5348 142.628 41.703C142.625 43.2865 141.523 43.8202 140.3 44.0774C137.63 44.639 134.942 44.9499 132.35 43.7202C132.064 43.5845 131.704 43.5755 131.311 43.4938C130.849 44.4162 131.121 45.1002 132.169 45.1716C134.5 45.3305 136.845 45.3569 139.184 45.3766C139.711 45.3811 140.241 45.1372 140.849 44.9881C139.869 47.0881 136.858 47.4807 131.249 46.308C131.344 46.8481 131.432 47.3513 131.527 47.8961C135.576 48.721 139.272 47.892 142.879 46.1271C143.184 47.3632 142.729 48.0132 141.663 48.2755C139.702 48.7578 137.725 49.1829 135.485 49.6417C133.784 49.7121 132.351 49.7726 130.919 49.8331C130.915 49.9771 130.912 50.1212 130.909 50.2652C132.455 50.2652 134.002 50.2652 135.548 50.2652C139.483 49.6355 143.418 49.0057 147.517 48.323C148.8 48.4321 149.451 48.0725 149.454 46.9855C151.389 46.7321 152.199 45.6307 152.496 42.6272C153.328 42.7372 154.141 42.8446 155.226 42.9879C155.346 42.9587 155.829 42.8414 156.313 42.724C156.436 43.2111 156.701 43.7105 156.65 44.1822C156.574 44.8863 156.275 45.5708 156.07 46.2636C156.233 46.3335 156.396 46.4033 156.559 46.4732C156.962 46.0707 157.366 45.6682 157.939 45.0952C157.978 45.6822 158.046 46.0592 158.021 46.431C157.672 51.4711 157.346 56.5128 156.933 61.5487C156.773 63.4922 156.046 63.7746 154.048 63.2613C153.327 63.0762 152.32 63.2738 151.634 63.6115C150.322 64.2579 149.621 64.128 149.023 62.8579C148.556 61.8688 148.397 60.4438 146.664 60.7462C145.096 61.0199 144.873 62.3069 144.742 63.5001C144.57 65.0741 144.494 66.6567 144.315 68.2299C144.217 69.0874 144.085 69.9589 143.803 70.7782C143.378 72.0174 142.542 72.9989 140.961 73.0499C139.292 73.1037 138.097 72.279 137.607 70.9157C137.234 69.8773 137.207 68.7255 137.124 67.6182C137.04 66.5008 137.276 65.2089 135.687 64.8417C134.097 64.4744 132.992 65.3628 132.505 66.5723C131.699 68.571 131.076 70.6376 130.518 72.7068C130.148 74.0774 129.954 75.4712 128.113 75.8784C126.616 76.2098 124.861 75.4874 123.86 73.9409C123.096 72.7606 122.534 71.4646 121.979 70.1861C121.142 68.2605 119.723 66.9935 117.531 66.2664C116.413 65.8954 115.454 65.0956 114.48 64.4235C113.902 64.0246 113.475 63.4493 112.907 63.0363C111.448 61.9775 110.796 62.097 109.771 63.4976C108.994 64.5607 108.254 65.6526 107.39 66.6563C106.371 67.8389 105.002 68.5405 103.289 68.4993C101.646 68.4597 100.574 67.796 100.072 66.2791C99.0613 63.2228 98.4726 60.1543 98.6912 56.9385C98.7972 55.3783 98.4184 53.793 98.2843 52.2173C98.1653 50.8187 98.0811 49.4177 98.2652 47.9668C98.4764 48.319 98.6875 48.6712 99.0502 49.2761C99.5334 48.1498 99.9246 47.238 100.327 46.2995C101.089 46.6905 101.732 47.0203 102.375 47.3501C102.461 47.2718 102.547 47.1936 102.632 47.1153C102.149 46.2485 101.665 45.3817 101.181 44.5149C101.286 44.3686 101.391 44.2223 101.495 44.0761C102.536 44.5267 103.576 44.9774 104.758 45.5368C105.002 45.6905 105.105 45.7355 105.259 45.8634C105.409 45.9437 105.508 45.9412 105.606 45.9387C105.563 45.8116 105.519 45.6845 105.462 45.4959C105.401 45.3589 105.336 45.3007 105.251 45.2597C105.006 44.6477 104.76 44.0357 104.425 43.2025C106.545 42.9933 106.114 45.3857 107.869 45.4346C107.585 44.7263 107.322 44.0716 107.052 43.3984C108.077 43.0114 108.454 43.2738 108.985 44.1595C109.729 45.4023 110.741 46.8475 112.058 47.4091C114.685 48.53 117.597 49.1088 120.511 49.6795C119.067 48.3738 116.686 47.8842 117.075 45.2279C119.34 47.0903 121.634 48.8355 124.932 48.703C124.628 48.4488 124.325 48.1945 123.927 47.8613C125.636 47.1896 128.289 48.9754 128.94 45.9406C128.341 46.1025 127.826 46.2259 127.322 46.381C124.792 47.1601 122.284 47.1094 119.903 46.0119C119.17 45.6742 118.645 44.9707 118.025 44.4347C118.154 44.2801 118.283 44.1254 118.412 43.9708C119.134 44.1778 119.847 44.5257 120.58 44.5656C122.871 44.6903 125.171 44.7522 127.467 44.729C128.572 44.7178 129.209 44.1365 128.973 43.1191C127.073 43.2973 125.199 43.5806 123.32 43.6064C122.29 43.6206 121.201 43.3112 120.232 42.9455C119.229 42.5666 118.887 41.7782 119.432 40.6249C122.387 42.0822 125.412 42.1748 128.486 41.2561C121.207 41.0027 120.22 40.6706 120.564 38.3187C123.307 39.524 126.106 40.3349 129.314 39.2327C128.889 39.0397 128.473 38.6969 128.038 38.6765C123.192 38.4492 119.245 36.4465 115.544 33.8047C114.55 33.0949 113.179 32.8148 111.999 32.3447C112.902 30.857 115.012 30.9046 116.932 32.6058C119.567 34.9418 122.733 36.4963 126.308 37.2989C127.227 37.5051 128.461 38.0966 129.069 36.6217C129.149 36.4279 130.27 36.551 130.905 36.5833C131.688 36.6232 132.581 36.9802 133.231 36.7504C136.122 35.7283 138.999 34.6459 141.77 33.3872C143.804 32.463 145.861 32.2826 148.032 32.5143C148.839 32.6004 148.834 32.6381 148.49 33.4673C147.967 33.5901 147.679 33.685 147.391 33.7799ZM125.583 74.3231C125.812 74.354 126.042 74.3849 126.271 74.4158C126.099 74.2197 125.926 74.0236 125.656 73.6326C125.114 72.4894 124.606 71.332 124.021 70.2075C123.536 69.2766 122.96 68.3845 122.246 67.3875C122.225 67.5435 122.204 67.6996 122.267 68.0632C122.71 69.1029 123.09 70.1695 123.615 71.1748C124.153 72.2058 124.832 73.1768 125.583 74.3231ZM107.877 62.4388C106.474 64.0592 105.071 65.6796 103.408 67.6006C104.59 67.0002 105.788 66.6912 106.454 65.9782C107.324 65.0474 107.772 63.7967 108.58 62.5405C109.492 61.7745 110.405 61.0086 111.245 60.3035C109.8 59.5098 108.851 59.9741 107.877 62.4388ZM116.758 51.4908C118.951 51.7153 121.144 51.9398 123.337 52.1643C123.354 52.0194 123.371 51.8745 123.388 51.7295C120.009 51.2157 116.63 50.7019 113.25 50.1881C113.218 50.3341 113.187 50.4801 113.155 50.6261C114.264 50.8921 115.373 51.1582 116.758 51.4908ZM137.397 54.3013C139.253 54.0327 141.108 53.7642 142.964 53.4956C142.931 53.3045 142.899 53.1135 142.866 52.9224C140.293 53.2288 137.72 53.5352 135.146 53.8416C135.151 53.997 135.155 54.1525 135.159 54.3079C135.804 54.3079 136.45 54.3079 137.397 54.3013ZM150.132 49.5455C151.145 48.8498 152.158 48.154 153.17 47.4582C153.12 47.3902 153.069 47.3222 153.019 47.2541C151.097 48.1626 149.174 49.071 147.252 49.9795C147.321 50.1292 147.389 50.2788 147.457 50.4285C148.275 50.1694 149.094 49.9102 150.132 49.5455ZM145.236 60.4089C145.297 60.2008 145.359 59.9927 145.42 59.7845C144.967 59.8899 144.386 59.8713 144.083 60.1237C143.132 60.9151 143.065 63.1667 143.792 64.2608C144.202 63.0837 144.635 61.8405 145.236 60.4089ZM100.024 57.9241C100.042 59.9714 99.3491 62.0904 100.682 64.0068C100.732 62.4517 100.632 60.9094 100.559 59.3661C100.533 58.811 100.572 58.2533 100.581 57.6968C100.401 57.6999 100.22 57.703 100.024 57.9241ZM133.709 63.7227C134.307 63.6243 134.905 63.526 135.62 63.4084C133.807 62.4601 132.934 62.7092 131.847 64.5611C132.519 64.2402 132.987 64.0169 133.709 63.7227ZM107.698 45.2334C107.746 45.4754 107.793 45.7178 107.856 45.9566C107.858 45.9634 108.042 45.9307 108.141 45.9165C108.091 45.7209 108.041 45.5253 107.698 45.2334Z" fill="#010101"/>
<path d="M111.473 89.9671C112.849 90.6325 114.163 91.4833 115.62 91.9052C116.809 92.2496 117.737 91.6002 118.305 90.4055C118.948 89.052 119.67 87.7874 119.042 86.1148C118.76 86.5092 118.566 86.7802 118.373 87.0512C118.209 87.0353 118.045 87.0194 117.881 87.0035C118.088 80.7648 118.295 74.5261 118.502 68.2874C118.735 68.2724 118.968 68.2575 119.201 68.2425C119.341 68.9599 119.482 69.6773 119.675 70.6627C120.013 70.1653 120.209 69.8768 120.61 69.2864C121.257 70.7121 121.852 71.8957 122.335 73.1181C123 74.8033 123.914 76.223 125.649 77.2021C126.258 77.546 126.775 78.5199 126.789 79.2155C126.867 83.1207 126.877 87.0327 126.696 90.9337C126.626 92.4439 127.103 93.2207 128.649 93.3304C130.559 93.466 132.478 93.5589 134.393 93.5551C136.01 93.552 137.01 92.869 136.747 91.1628C136.71 90.9211 136.793 90.6633 136.832 90.3077C137.32 90.2696 137.768 90.2346 138.27 90.1953C138.27 88.5758 138.27 86.9941 138.27 85.2138C137.777 85.4703 137.443 85.6439 136.83 85.9628C136.83 81.5694 136.83 77.3197 136.83 73.0124C138.059 73.7072 139.238 74.3725 139.244 76.1161C139.246 77.0258 139.784 77.9665 140.231 78.8245C140.382 79.1128 140.999 79.1887 141.39 79.3559C140.985 78.1542 140.466 77.2374 140.492 76.3341C140.5 76.0432 141.942 75.788 142.926 75.4483C142.819 74.6978 142.744 73.6017 144.5 73.4652C144.633 76.4789 144.768 79.4892 144.898 82.4998C145 84.8657 145.141 87.2313 145.17 89.5981C145.183 90.6305 145.643 90.8982 146.664 90.9118C148.746 90.9395 150.574 90.3694 152.161 89.1334C153.316 88.2345 153.969 87.1501 153.905 85.6553C153.625 79.2279 153.414 72.7978 153.182 66.3686C153.163 65.8642 153.179 65.3589 153.179 64.8433C155.322 64.4295 154.455 66.418 155.347 67.2577C155.552 66.5344 155.704 66.0002 155.856 65.4659C156.052 65.4721 156.248 65.4784 156.444 65.4847C156.444 69.9671 156.329 74.4528 156.476 78.931C156.626 83.4636 157.036 87.9887 157.347 92.7418C158.331 93.2521 158.346 95.8972 156.725 96.8309C153.545 98.6615 150.388 100.703 146.92 101.886C136.178 105.55 125.168 106.02 114.105 103.089C110.492 102.131 107.386 100.288 104.815 97.6888C103.942 96.8057 103.651 95.8949 104.23 94.7856C105.696 95.923 107.112 97.0202 108.527 98.1175C108.64 98.0394 108.754 97.9613 108.867 97.8833C108.757 97.6025 108.725 97.2535 108.523 97.0538C107.956 96.4942 107.33 95.9856 106.71 95.476C104.979 94.0543 104.301 92.3905 104.512 90.1464C104.801 87.0853 104.593 83.9849 104.659 80.9025C104.67 80.3784 104.99 79.8602 105.167 79.3392C105.341 79.3722 105.514 79.4052 105.688 79.4381C105.797 80.046 105.906 80.6538 106.015 81.2617C106.178 81.2718 106.342 81.282 106.506 81.2922C106.633 79.8375 106.76 78.3828 106.937 76.6977C107.051 76.0833 107.115 75.6995 107.179 75.3157C105.91 76.632 104.824 77.7434 102.985 76.2992C102.794 73.9575 103.288 73.1505 105.496 72.5765C105.973 71.9092 106.207 71.2582 106.44 70.6072C106.261 68.9212 107.872 68.979 109.013 68.2072C109.013 69.7128 109.013 70.9921 109.013 72.2714C109.153 72.2838 109.294 72.2962 109.435 72.3086C109.706 70.3419 109.978 68.3752 110.249 66.4086C110.429 66.4253 110.609 66.442 110.789 66.4587C110.813 66.8804 110.875 67.3037 110.855 67.7236C110.539 74.2917 110.242 80.8608 109.861 87.4257C109.793 88.5992 110.104 89.4244 111.341 89.9578C111.476 89.9407 111.473 89.9671 111.473 89.9671ZM149.269 94.7685C134.746 99.8836 120.481 100.441 106.548 92.7756C107.161 93.6566 107.758 94.6854 108.681 95.1418C114.786 98.1617 120.999 100.668 128.24 100.212C132.572 99.9397 136.907 100.12 141.044 98.5819C144.82 97.1778 148.654 95.9066 152.406 94.4512C153.649 93.9688 154.623 93.0414 154.472 91.527C152.753 92.6047 151.118 93.6297 149.269 94.7685ZM141.184 101.999C141.874 101.802 142.564 101.606 143.254 101.409C143.215 101.271 143.176 101.132 143.137 100.993C138.467 101.784 133.797 102.574 129.127 103.365C129.97 103.641 130.892 103.912 131.739 103.775C134.816 103.28 137.867 102.649 141.184 101.999ZM116.845 93.1408C116.688 93.0046 116.554 92.7916 116.371 92.7443C114.754 92.3266 113.13 91.9308 111.504 91.5484C111.207 91.4788 110.887 91.4992 110.578 91.4781C112.414 92.7914 114.371 93.5356 116.845 93.1408ZM132.694 94.6073C130.953 94.6073 129.212 94.6073 127.302 94.6073C128.554 95.6586 132.238 95.8506 133.282 95.0379C133.297 95.0265 133.067 94.7411 132.694 94.6073ZM121.909 82.2773C123.417 81.3897 123.678 80.1484 122.121 78.5773C123.12 80.7719 121.657 81.1622 120.057 81.746C120.852 82.023 121.245 82.1601 121.909 82.2773ZM109.54 73.2159C109.5 72.7754 109.46 72.3349 109.42 71.8945C109.269 71.9086 109.117 71.9227 108.966 71.9368C108.966 72.9801 108.966 74.0235 108.966 75.0669C109.068 75.0775 109.17 75.0882 109.272 75.0988C109.355 74.5683 109.438 74.0379 109.54 73.2159Z" fill="#010101"/>
<path d="M95.8141 83.4862C96.9085 83.7397 98.1534 83.0694 99.0662 84.7908C94.0678 83.8433 89.004 85.3536 84.8582 82.0466C85.0795 84.1576 85.9716 85.0884 88.269 85.3227C91.3282 85.6347 94.3965 85.8623 97.459 86.1456C100.338 86.412 100.45 86.5535 100.371 89.8292C95.3385 89.4648 90.3177 89.1012 85.297 88.7376C85.2684 88.8759 85.2398 89.0142 85.2112 89.1525C86.1271 89.3342 87.035 89.5985 87.9603 89.6832C91.7219 90.0275 95.4896 90.3088 99.2529 90.6368C99.6931 90.6752 100.12 90.8593 100.553 90.9759C100.539 91.1071 100.525 91.2383 100.511 91.3695C100.288 91.4486 100.061 91.6046 99.8416 91.5954C95.1704 91.3992 90.4845 91.8944 85.8183 90.7861C84.6158 90.5005 83.1018 90.8977 82.2865 89.7638C81.4481 88.5977 80.9701 87.1867 80.3529 85.8746C80.2673 85.6924 80.2827 85.4638 80.2603 85.2558C79.9638 82.4999 79.5189 79.7497 79.405 76.9867C79.1702 71.2925 79.0897 65.5918 79.0013 59.893C78.9844 58.8046 79.1301 57.6933 79.3636 56.6261C79.875 54.2897 81.295 52.4923 83.726 52.0701C86.5159 51.5855 89.3921 51.5531 92.2346 51.3842C92.6206 51.3613 93.0287 51.686 93.6874 51.9572C90.6342 52.3815 87.9185 52.636 85.2591 53.1588C81.7942 53.8399 80.8291 55.0662 80.6189 58.5163C80.5789 59.1726 80.6131 59.8332 80.6131 60.4919C80.778 60.5165 80.9429 60.5412 81.1078 60.5658C81.2585 59.8251 81.4527 59.0898 81.5525 58.3428C82.0219 54.8307 82.5716 54.2613 86.1562 53.924C88.841 53.6713 91.5357 53.3418 94.2226 53.3683C95.3249 53.3792 96.4387 54.1988 97.499 54.7394C97.7156 54.8498 97.7164 55.3577 97.8408 55.7607C94.0461 56.0654 90.252 55.1115 86.7768 56.826C86.77 57.002 86.7632 57.178 86.7565 57.3539C90.5109 57.3539 94.2653 57.3539 98.0197 57.3539C98.0326 57.5841 98.0456 57.8143 98.0585 58.0445C97.6202 58.121 97.185 58.2275 96.7432 58.2692C93.9563 58.5323 91.1505 58.6682 88.3856 59.0699C86.1479 59.395 85.4398 60.2621 85.1993 62.4081C84.5425 68.2681 84.7387 74.1072 85.8033 79.9115C86.2077 82.1168 86.75 82.6472 89.0564 82.9192C91.2501 83.178 93.4614 83.2974 95.8141 83.4862Z" fill="#010101"/>
<path d="M125.246 27.7879C125.564 27.1929 125.882 26.5978 126.2 26.0028C126.457 26.1469 126.714 26.291 126.97 26.4352C126.643 26.1908 126.224 25.6827 126.004 25.7445C124.436 26.1859 124.011 25.0566 123.272 24.3111C123.037 24.0744 122.66 23.8855 122.313 23.814C120.185 23.3764 117.982 23.1488 115.931 22.5183C114.028 21.933 112.674 20.6268 112.535 18.6785C112.399 16.7725 113.899 15.7566 115.446 14.8742C116.166 14.4635 117.033 14.1435 117.874 14.0352C125.188 13.0925 132.534 12.9788 139.528 15.2986C143.034 16.4615 146.239 18.4509 149.401 20.3109C151.268 21.4089 151.267 23.0015 149.711 24.5588C148.997 24.8383 148.49 25.0319 147.833 25.2182C147.256 25.3293 146.829 25.4477 146.409 25.5567C146.416 25.5473 146.405 25.5265 146.305 25.4134C144.485 25.2241 142.764 25.148 140.904 25.0656C142.136 23.2534 143.664 23.5171 145.253 23.74C146.099 23.8587 147.024 23.8306 147.856 23.652C149.219 23.3589 149.467 22.4476 148.422 21.5956C147.309 20.6878 146.205 19.6653 144.882 19.0888C140.134 17.0199 135.443 15.0607 129.879 14.847C124.984 14.659 120.362 14.9921 115.779 16.4172C114.189 16.9114 113.686 17.8911 114.836 18.9308C116.002 19.9845 117.58 20.67 118.762 21.7131C119.752 22.5873 120.729 22.75 121.753 22.5346C122.257 21.2933 122.703 20.1929 123.156 19.0742C122.902 19.0408 122.491 18.9868 122.08 18.9327C121.986 18.7688 121.893 18.605 121.8 18.4411C122.685 17.8961 123.543 16.9273 124.462 16.8776C129.055 16.629 133.684 16.4152 138.123 17.9414C140.85 18.8792 141.376 19.757 140.342 22.2317C139.82 23.4825 139.001 24.6337 138.306 25.8473C137.719 26.1727 136.356 25.365 136.392 26.8243C136.243 26.8327 136.183 26.8307 136.017 26.8452C135.717 27.0413 135.524 27.2209 135.255 27.4273C135.179 27.454 135.028 27.5079 134.898 27.4819C134.278 27.5727 133.787 27.6895 133.191 27.7658C132.652 27.756 132.219 27.7866 131.644 27.802C131.037 27.8216 130.569 27.8563 130.051 27.8005C128.493 26.9736 129.745 28.442 129.063 28.5106C128.889 28.7029 128.873 28.8758 128.788 29.0426C128.589 28.9917 128.46 28.947 128.492 28.897C128.451 28.6355 128.25 28.3792 127.926 28.1019C126.951 27.9832 126.099 27.8856 125.246 27.7879ZM125.472 19.6459C124.783 20.2094 123.755 20.6776 123.513 21.3669C123.324 21.9049 123.92 23.0679 124.511 23.3292C125.478 23.7567 126.759 23.8973 127.845 23.7605C129.593 23.5403 130.039 22.6858 129.79 20.8583C129.603 19.4879 128.394 19.4758 127.295 19.3954C126.786 19.3582 126.26 19.5144 125.472 19.6459ZM137.705 20.5024C137.08 20.3818 136.439 20.3047 135.833 20.1317C134.558 19.7675 133.909 20.1211 133.59 21.3213C133.069 23.2824 133.121 23.4523 135.289 23.8309C135.803 23.9207 136.32 24.0048 136.841 24.0569C138.171 24.1903 138.667 23.4559 138.615 22.4538C138.583 21.8268 138.204 21.214 137.705 20.5024ZM130.402 22.596C130.218 23.7583 129.036 24.935 130.5 26.2744C130.845 25.7747 131.098 25.4062 131.357 25.0308C131.65 25.3474 131.942 25.6635 132.234 25.9797C132.389 25.9507 132.543 25.9216 132.698 25.8925C132.641 24.8248 132.654 23.749 132.499 22.6929C132.421 22.1638 132.038 21.6705 131.793 21.161C131.362 21.5597 130.931 21.9584 130.402 22.596Z" fill="#010101"/>
<path d="M128.166 6.70215C131.742 6.76888 135.185 6.45064 138.529 7.68623C140.134 8.27951 140.984 9.04408 140.707 10.7527C140.643 11.1467 140.698 11.5587 140.698 12.0763C140.373 12.1043 140.047 12.1324 139.72 12.1606C139.649 12.2379 139.577 12.3153 139.505 12.3927C140.091 12.6219 140.677 12.8511 141.263 13.0804C141.104 13.1883 140.945 13.2963 140.787 13.4043C138.078 12.8958 135.388 12.2379 132.656 11.9213C129.983 11.6116 127.266 11.6498 124.541 11.5341C124.295 8.07076 125.107 6.88688 128.166 6.70215ZM139.075 12.1283C139.189 12.0819 139.302 12.0355 139.416 11.9892C139.252 11.9883 139.087 11.9875 139.075 12.1283Z" fill="#010101"/>
<path d="M108.402 22.879C108.791 23.1404 109.196 23.3859 109.568 23.6665C110.355 24.2596 110.286 24.7998 109.558 25.4567C108.938 26.0161 108.249 26.6667 108.007 27.3913C106.873 30.7893 104.794 33.6824 102.509 36.501C101.325 37.9611 100.457 39.6509 99.1527 41.0041C98.4465 41.7367 97.1653 42.1189 96.063 42.394C95.3608 42.5693 94.5111 42.2586 93.5901 42.1714C93.4525 42.177 93.484 42.1878 93.484 42.1878C93.1754 40.9877 93.4227 40.1688 94.9889 39.8943C95.5582 39.7946 96.174 39.2806 96.5075 38.805C99.5209 34.5078 102.494 30.1869 105.433 25.8474C105.957 25.0737 106.564 24.2213 105.674 23.2577C105.561 23.1355 105.873 22.6912 106.242 22.3403C107.132 22.4827 107.767 22.6809 108.402 22.879ZM99.2796 37.2914C98.6459 38.0936 98.0121 38.8958 97.3783 39.698C97.5664 39.8135 97.7544 39.9291 97.9425 40.0446C98.8109 38.9429 99.6793 37.8413 100.548 36.7396C100.35 36.587 100.153 36.4344 99.9557 36.2818C99.7857 36.5565 99.6157 36.8313 99.2796 37.2914Z" fill="#010101"/>
<path d="M147.388 33.934C147.646 33.7194 147.934 33.621 148.335 33.5107C148.529 33.6294 148.617 33.8779 148.686 33.8734C151.445 33.6906 152.254 36.4813 154.541 37.1936C156.742 37.8792 158.68 39.2869 160.77 40.3113C162.301 41.0615 163.854 41.7979 165.465 42.3712C167.28 43.0169 167.605 44.3707 167.605 46.0683C166.904 46.2776 166.329 46.2684 165.775 46.3626C164.956 46.5017 164.151 46.7144 163.34 46.8957C162.38 47.0148 162.607 46.5677 162.68 45.9524C162.746 45.3996 162.601 44.5472 162.199 44.2659C157.999 41.3279 153.722 38.49 148.509 37.2829C148.127 37.1943 147.676 37.1956 147.378 36.9966C146.862 36.6529 146.219 36.2459 146.062 35.7462C145.965 35.4396 146.672 34.9092 147.023 34.483C147.146 34.3332 147.285 34.1941 147.388 33.934Z" fill="#010101"/>
<path d="M152.18 22.5431C152.573 22.4442 152.903 22.2956 153.124 22.3532C155.235 22.9039 157.333 23.4788 159.418 24.0768C159.716 24.1623 159.987 24.3805 160.159 24.584C161.106 25.7063 159.316 27.9728 157.491 28.0651C156.797 28.1002 155.923 28.1923 155.483 28.504C154.44 29.2435 153.353 29.1137 152.289 28.7542C151.118 28.3587 150.702 27.6366 150.883 26.6919C151.024 25.9565 150.79 25.1804 150.985 24.4571C151.159 23.8097 151.691 23.2098 152.18 22.5431Z" fill="#010101"/>
<path d="M160.421 62.5485C162.349 60.2947 161.408 57.7246 161.755 55.2967C162.134 52.6448 162.501 49.9919 163.021 47.172C164.648 46.9746 166.127 46.9447 167.605 46.9148C167.544 47.4676 167.615 48.0559 167.389 48.5649C167.041 49.3469 166.265 50.0403 166.063 50.8313C165.382 53.4987 164.786 56.1839 164.345 58.8806C164.165 59.9778 164.463 61.1219 164.405 62.3927C163.92 62.5538 163.574 62.5669 163.125 62.5449C162.156 62.5227 161.288 62.5356 160.421 62.5485ZM163.156 53.2611C163.009 54.3887 162.863 55.5164 162.717 56.644C162.903 56.6636 163.089 56.6831 163.275 56.7027C163.631 54.9981 163.986 53.2935 164.342 51.5889C164.126 51.5519 163.911 51.5149 163.695 51.4778C163.536 51.9936 163.376 52.5094 163.156 53.2611Z" fill="#010101"/>
<path d="M111.973 36.9657C107.477 39.3497 102.983 41.7343 98.487 44.1174C96.3551 45.2474 94.6051 44.6895 93.3684 42.3403C93.8164 42.4197 94.1388 42.4769 94.5962 42.4971C94.7313 42.4603 94.7033 42.4506 94.6966 42.4406C95.0667 43.2353 97.1121 43.9425 98.1361 43.3843C99.3134 42.7425 100.291 41.7939 101.366 40.9913C102.435 40.1935 103.459 39.3276 104.608 38.6403C106.828 37.3124 109.271 36.2643 111.344 34.7749C113.572 33.1744 113.674 33.012 115.819 34.7587C115.966 34.8779 116.234 34.8619 116.429 34.9421C116.573 35.0011 116.69 35.1146 117.316 35.5464C115.783 35.9463 114.687 36.232 113.438 36.436C112.226 35.4314 112.215 36.4078 111.973 36.9657Z" fill="#010101"/>
<path d="M136.049 30.392C136.203 30.5891 136.357 30.7862 136.474 31.0722C136.146 31.3697 135.722 31.5462 135.586 31.7923C134.737 33.328 132.942 33.6737 130.782 33.4477C129.88 33.3534 128.933 33.1313 128.182 32.7954C126.94 32.24 125.84 31.5454 124.5 30.811C124.5 30.384 124.5 29.7712 124.534 29.0496C125.472 29.0175 126.376 29.094 127.393 29.2735C127.617 29.5225 127.728 29.6685 127.839 29.8146C127.976 29.8497 128.114 29.8847 128.414 30.0009C128.685 30.1882 128.793 30.2945 128.937 30.4388C129.106 30.3962 129.239 30.3156 129.469 30.2433C129.625 30.3729 129.682 30.4943 129.788 30.6862C130.173 30.7116 130.508 30.6664 130.962 30.5947C131.181 30.3603 131.281 30.1524 131.462 29.9496C131.65 29.9541 131.755 29.9427 131.899 30.0019C132.187 30.112 132.434 30.1411 132.786 30.212C133.331 30.3875 133.77 30.5211 134.312 30.6969C134.678 30.7995 135.009 30.9555 135.189 30.8994C135.522 30.796 135.767 30.5681 136.049 30.392Z" fill="#010101"/>
<path d="M156.907 19.5356C155.46 18.6753 155.325 18.1499 156.098 16.3956C157.392 13.4579 158.969 12.5484 161.232 14.2754C162.122 14.9548 162.511 17.1157 162.813 18.7109C162.885 19.0959 161.702 19.9135 161.07 20.6343C160.349 21.2258 159.664 22.1747 158.897 22.3167C157.978 22.4868 157.135 21.7506 157.175 19.9209C157.846 19.3188 158.422 18.9762 159.015 18.6232C158.94 16.6671 157.839 17.1598 156.907 17.0402C156.907 17.924 156.907 18.7298 156.907 19.5356Z" fill="#010101"/>
<path d="M169.971 24.9991C170.133 27.3839 169.655 27.9607 167.465 28.3502C167.028 28.428 166.636 28.7178 166.211 28.88C165.022 29.3334 163.945 28.8085 163.572 27.6701C163.404 27.1578 162.935 26.6971 162.895 26.1923C162.824 25.2882 162.682 24.2005 163.124 23.5067C163.498 22.9187 164.625 22.6667 165.471 22.4615C167.723 21.9154 168.899 23.2949 169.971 24.9991Z" fill="#010101"/>
<path d="M165.778 71.6739C165.39 71.7495 165.002 71.825 164.411 71.9892C163.815 71.9838 163.422 71.8897 163.029 71.7955C163.002 71.732 162.976 71.6685 162.978 71.4193C162.99 71.0022 162.974 70.7707 162.958 70.5392C162.868 68.9553 162.778 67.3714 162.832 65.6306C163.251 65.3672 163.526 65.2605 163.914 65.1097C164.15 64.9693 164.272 64.873 164.394 64.7874C164.393 64.798 164.417 64.8035 164.544 64.8247C165.033 65.0384 165.395 65.2307 165.86 65.5192C166.325 66.3434 166.661 67.0821 167.054 67.7973C167.874 69.2879 168.724 70.766 169.561 72.2493C169.708 72.6102 169.854 72.971 170 73.3319C169.891 73.4624 169.782 73.593 169.673 73.7235C169.151 73.365 168.629 73.0065 167.992 72.582C167.876 72.5161 167.905 72.5055 167.894 72.4132C167.859 72.2623 167.836 72.2037 167.815 72.0099C166.969 70.264 166.12 68.6535 165.272 67.0429C165.1 67.0948 164.929 67.1466 164.757 67.1984C165.134 68.2049 165.57 69.1988 165.859 70.2235C165.986 70.6746 165.814 71.1885 165.778 71.6739ZM164.186 71.0139C164.245 71.0392 164.302 71.0721 164.365 71.0874C164.41 71.0985 164.463 71.0864 164.512 71.0846C164.388 70.3076 164.263 69.5306 164.138 68.7536C163.969 68.7804 163.799 68.8073 163.63 68.8342C163.754 69.4875 163.878 70.1409 164.186 71.0139Z" fill="#010101"/>
<path d="M146.279 38.5656C145.293 38.4862 144.475 38.4117 143.658 38.3373C143.724 38.2207 143.79 38.1042 143.857 37.9876C148.127 37.9019 152.016 38.4381 155.632 39.6118C152.99 40.581 151.314 40.3469 149.774 39.133C149.31 38.7668 147.591 38.7484 146.279 38.5656Z" fill="#010101"/>
<path d="M116.942 38.8067C117.827 37.9826 119.287 37.9709 120.637 37.9802C121.148 37.9837 121.942 38.2964 122.076 38.5463C122.212 38.8014 121.86 39.2928 121.43 39.4319C120.57 39.7099 119.53 39.8642 118.527 39.9831C117.505 40.1044 116.438 40.1218 114.921 40.2128C115.714 39.66 116.286 39.2615 116.942 38.8067Z" fill="#010101"/>
<path d="M168.56 71.4719C167.704 70.3177 166.967 69.1555 166.256 67.9837C165.915 67.4214 165.623 66.8406 165.247 66.0863C165.211 65.3512 164.999 64.6597 166.229 64.8074C167.465 66.697 168.723 68.5786 169.913 70.4859C170.067 70.7341 170.009 71.1997 169.797 71.4063C169.642 71.5582 169.074 71.4515 168.56 71.4719Z" fill="#010101"/>
<path d="M95.7631 10.1729C95.5785 11.2296 95.3938 12.2863 95.1984 13.4042C93.3282 12.6521 93.336 11.5304 93.9006 10.4295C94.4723 9.31497 94.223 8.38807 93.5263 7.29021C93.0249 6.50019 93.8312 5.42756 94.3643 4.46802C94.8535 5.20649 95.0651 5.9559 95.2042 6.70987C95.4168 7.86256 95.5793 9.01839 95.7631 10.1729Z" fill="#010101"/>
<path d="M138.868 29.0425C138.912 28.8034 139.044 28.3683 139.255 28.2822C141.644 27.309 144.045 26.3893 146.438 25.285C146.434 25.1147 146.443 25.1405 146.539 25.287C147.004 25.3324 147.373 25.2313 147.851 25.1389C148.379 25.0039 148.798 24.8601 149.218 24.7162C149.577 24.6257 149.937 24.5352 150.484 24.5922C150.729 24.8284 150.785 24.9171 150.842 25.0058C149.509 25.4552 148.176 25.9046 146.627 26.3507C145.991 26.4887 145.571 26.6301 144.977 26.8301C145.326 27.144 145.503 27.3026 145.679 27.4613C143.451 27.9771 141.223 28.4929 138.868 29.0425Z" fill="#010101"/>
<path d="M133.118 93.8271C131.67 93.8141 130.364 93.8719 129.098 93.7499C126.818 93.53 126.686 93.3462 127.048 91.5957C127.325 91.8778 127.515 92.0701 127.704 92.2625C127.872 92.4335 128.04 92.6045 128.32 92.8883C128.474 92.484 128.575 92.2173 128.553 92.2744C131.103 92.5241 133.555 92.7642 136.474 93.0501C135.25 93.3436 134.264 93.5803 133.118 93.8271Z" fill="#010101"/>
<path d="M112.691 65.3699C118.443 67.3893 117.477 70.5756 116.797 73.7235C116.398 70.3787 115.272 67.2353 110.132 65.1615C110.398 65.0368 110.665 64.9121 110.932 64.7874C111.473 64.9618 112.015 65.1362 112.691 65.3699Z" fill="#010101"/>
<path d="M152.34 70.4255C152.651 74.5925 152.944 78.6124 153.237 82.6324C152.939 82.6415 152.641 82.6506 152.343 82.6597C151.843 76.7191 151.342 70.7785 150.842 64.8378C151.105 64.821 151.368 64.8042 151.631 64.7874C151.861 66.6177 152.091 68.4481 152.34 70.4255Z" fill="#010101"/>
<path d="M129.541 78.3451C128.964 79.8663 129.683 81.4782 127.851 82.6596C127.586 82.6468 127.321 82.6339 127.056 82.621C127.056 81.1199 126.598 79.5431 127.224 78.1457C127.614 77.276 129.644 76.6776 130.937 75.9575C131.186 76.1002 131.435 76.2428 131.684 76.3855C130.983 76.9984 130.281 77.6112 129.541 78.3451Z" fill="#010101"/>
<path d="M97.2893 5.35061C97.2692 5.55852 97.1431 5.83874 97.2447 5.9637C99.4228 8.64183 97.0861 10.9499 96.5845 13.4042C96.4282 13.3944 96.2719 13.3846 96.1156 13.3748C96.1696 12.6359 96.2236 11.8971 96.3814 10.939C97.3085 9.26181 97.4456 7.87005 96.2889 6.4458C95.8957 5.96166 95.8608 5.23358 95.7632 4.56423C96.0072 4.47361 96.1501 4.43572 96.303 4.50034C96.5374 4.84511 96.7618 5.08738 97.0615 5.3409C97.1367 5.35216 97.2893 5.35061 97.2893 5.35061Z" fill="#010101"/>
<path d="M105.072 17.8722C102.397 17.7408 99.4592 17.9653 98.1579 15.8041C100.189 15.3069 101.772 16.0432 103.747 16.493C104.456 16.5572 104.861 16.6118 105.342 16.747C105.303 17.1758 105.188 17.524 105.072 17.8722Z" fill="#010101"/>
<path d="M150.153 47.9397C150.135 48.9702 149.609 49.2795 148.629 49.1016C148.537 49.02 148.522 48.9767 148.556 48.8488C148.552 48.5885 148.5 48.4128 148.447 48.2371C148.791 47.4115 149.106 46.5733 149.492 45.7662C149.659 45.4174 149.971 45.1327 150.325 44.6809C151.11 46.0215 150.961 46.9617 150.153 47.9397Z" fill="#010101"/>
<path d="M134.964 75.9574C134.66 73.4146 134.328 70.8756 134.082 68.3251C134.044 67.9332 134.329 67.2256 134.593 67.1247C135.098 66.9312 135.695 67.0684 136.474 67.0684C134.969 70.0825 135.805 72.903 135.383 75.7286C135.181 75.9115 135.073 75.9344 134.964 75.9574Z" fill="#010101"/>
<path d="M110.132 21.1107C110.131 21.2355 110.131 21.3603 110.03 21.551C108.944 20.9486 108.892 22.083 108.387 22.3404C108.365 22.1816 108.344 22.0228 108.309 21.6379C108.091 20.9844 107.956 20.5065 107.662 20.1461C107.446 19.8822 107.023 19.7726 106.692 19.5942C106.687 19.9277 106.561 20.3244 106.706 20.5806C106.958 21.0226 107.378 21.3773 107.728 21.7686C107.675 21.8446 107.622 21.9206 107.396 22.0602C106.883 21.9668 106.544 21.8097 106.202 21.6611C106.2 21.6695 106.218 21.6696 106.315 21.5894C106.075 20.91 105.726 20.3164 105.41 19.7078C105.322 19.5395 105.329 19.3266 105.379 19.1835C105.737 18.7771 106.008 18.3211 106.38 17.8723C107.106 18.4691 107.566 19.5984 108.706 18.4927C108.787 18.5257 108.867 18.5586 109.01 18.7284C108.738 19.1321 108.403 19.3989 107.836 19.8503C108.755 20.355 109.443 20.7329 110.132 21.1107Z" fill="#010101"/>
<path d="M110.726 84.8936C110.756 85.0618 110.83 85.2334 110.809 85.3977C110.312 89.2474 110.133 90.1906 117.316 91.2121C116.687 91.3464 116.006 91.6725 115.44 91.5791C113.681 91.2891 111.965 90.84 110.2 90.6254C110.166 90.7982 110.169 90.7689 110.15 90.7747C110.12 88.9191 110.109 87.0578 110.266 85.0465C110.531 84.8956 110.629 84.8946 110.726 84.8936Z" fill="#010101"/>
<path d="M167.998 74.756C168.27 75.302 168.543 75.848 168.914 76.5915C168.955 75.3886 168.984 74.556 169.013 73.7234C169.218 73.8181 169.542 73.8197 169.608 74.0251C169.795 74.6127 169.877 75.2831 170 75.9209C169.649 76.022 169.298 76.1231 168.877 76.2445C168.914 76.687 168.966 77.3171 169.038 78.1915C168.093 77.6374 167.47 77.0404 167.631 75.2297C167.759 74.9237 167.879 74.8399 167.998 74.756Z" fill="#010101"/>
<path d="M96.9856 6.69679C97.0512 5.94177 97.1769 5.19934 97.3025 4.31009C97.1445 3.82303 97.0439 3.39186 96.8189 3.15748C95.4923 1.77577 95.4646 1.26884 96.4633 0C96.7898 0.800818 97.0092 1.88227 97.5442 2.54253C98.8137 4.10933 97.8133 5.23459 97.2227 6.60037C97.1673 6.70765 97.0457 6.70938 96.9856 6.69679Z" fill="#010101"/>
<path d="M110.132 44.3959C111.117 43.3617 111.879 42.3706 114.921 42.4514C114.319 43.8057 113.72 45.1539 112.938 46.9149C111.797 45.9607 110.927 45.2336 110.132 44.3959Z" fill="#010101"/>
<path d="M151.395 88.9943C152.011 88.3314 152.576 87.7001 153.088 87.1277C153.615 88.347 152.715 89.4302 150.842 89.3583C151.075 89.2038 151.209 89.1148 151.395 88.9943Z" fill="#010101"/>
<path d="M102.947 76.8772C105.058 77.9976 106.293 77.0637 107.737 75.9575C107.664 76.2801 107.591 76.6026 107.445 77.0047C107.091 77.2385 106.792 77.38 106.531 77.5491C104.944 78.5776 103.722 78.3836 102.947 76.8772Z" fill="#010101"/>
<path d="M167.605 75.3855C167.313 75.6583 167.102 75.7587 166.816 75.9573C166.351 75.5876 165.803 75.1836 165.606 74.637C165.288 73.7528 165.201 72.7749 165.211 71.6257C165.83 71.434 166.254 71.4531 166.722 71.628C166.92 71.8157 167.073 71.8477 167.225 71.8797C167.225 71.8797 167.194 71.8935 167.188 71.8766C167.35 72.9775 167.518 74.0954 167.605 75.3855Z" fill="#010101"/>
<path d="M161.064 73.7234C163.307 74.3395 163.015 75.099 162.274 75.8838C161.898 75.9084 161.521 75.9329 161.144 75.9574C160.939 75.3211 160.734 74.6847 160.421 73.9709C160.563 73.8368 160.813 73.7801 161.064 73.7234Z" fill="#010101"/>
<path d="M167.329 63.5519C165.546 63.4998 165.845 64.1588 165.77 64.7873C165.289 64.7445 164.845 64.6003 164.221 64.3362C163.571 63.9185 163.102 63.6208 162.816 63.3017C163.495 63.0567 163.991 62.8331 164.487 62.6095C164.952 62.5975 165.417 62.5855 166.055 62.5532C167.333 62.5951 168.025 62.7983 167.329 63.5519Z" fill="#010101"/>
<path d="M167.344 71.4893C167.018 71.4765 166.692 71.4638 166.243 71.4732C166.092 71.3954 166.064 71.2953 166.037 71.1177C166.068 70.619 166.208 70.173 166.104 69.7815C165.87 68.8921 165.516 68.0296 165.211 67.1562C165.35 67.1112 165.489 67.0662 165.628 67.0212C166.317 68.4189 167.005 69.8166 167.605 71.3404C167.459 71.4741 167.401 71.4817 167.344 71.4893Z" fill="#010101"/>
<path d="M105.342 15.9606C105.342 15.9606 105.379 15.897 105.38 15.9172C105.427 15.8779 105.472 15.8182 105.748 15.6382C107.065 15.7216 108.151 15.9255 109.237 16.1293C109.519 16.473 109.8 16.8166 110.132 17.2722C107.978 18.6262 107.088 17.3576 105.65 16.6958C105.42 16.6964 105.445 16.7353 105.539 16.6086C105.536 16.3082 105.439 16.1344 105.342 15.9606Z" fill="#010101"/>
<path d="M115.959 44.3877C115.821 44.5303 115.709 44.6056 115.598 44.6808C114.189 44.1322 115.084 42.8126 117.316 42.4468C116.846 43.1076 116.416 43.7139 115.959 44.3877Z" fill="#010101"/>
<path d="M161.369 73.1688C161.026 73.4554 160.805 73.5657 160.502 73.7235C160.421 72.4106 160.421 71.0505 160.421 69.2554C161.46 70.103 161.941 70.4952 162.591 70.7446C162.779 70.8778 162.798 71.154 162.816 71.534C161.847 71.2634 161.847 71.2634 161.369 73.1688Z" fill="#010101"/>
<path d="M167.605 46.3498C166.153 46.673 164.687 46.7439 163.076 46.915C162.897 46.8845 162.863 46.7539 162.816 46.406C163.686 45.7989 164.562 45.3417 165.454 45.0427C166.057 44.8402 166.683 44.86 167.43 44.6809C167.571 45.0868 167.581 45.5922 167.605 46.3498Z" fill="#010101"/>
<path d="M163.949 73.7234C164.344 74.3232 164.74 74.923 165.211 75.6373C164.583 75.7304 163.955 75.8235 163.053 75.9574C162.878 75.1901 162.734 74.5616 162.869 73.8342C163.414 73.7313 163.681 73.7273 163.949 73.7234Z" fill="#010101"/>
<path d="M146.686 45.8423C146.791 45.1969 146.857 44.6281 148.447 44.6848C148.159 45.4969 147.924 46.276 146.053 46.915C146.369 46.3952 146.513 46.1591 146.686 45.8423Z" fill="#010101"/>
<path d="M105.549 15.6383C105.48 14.9833 105.411 14.3283 105.342 13.6732C105.584 13.5836 105.827 13.4939 106.069 13.4043C106.616 13.8641 107.162 14.3239 107.737 15.0065C107.026 15.3657 106.288 15.502 105.549 15.6383Z" fill="#010101"/>
<path d="M105.947 21.8107C105.934 21.5289 105.989 21.2751 105.872 21.0605C105.698 20.7398 105.404 20.4467 105.342 20.1064C105.869 20.3166 106.215 20.5622 106.561 20.8078C106.561 20.8078 106.543 20.8077 106.545 20.8695C106.944 21.2765 107.341 21.6216 107.737 21.9668C107.72 22.0663 107.704 22.1658 107.685 22.3405C107.168 22.3004 106.653 22.1851 106.021 22.0539C105.897 21.9758 105.908 21.9153 105.947 21.8107Z" fill="#010101"/>
<path d="M109.448 22.3404C108.805 21.5722 108.199 20.8364 107.837 19.9191C107.628 19.3876 107.81 18.5643 107.816 17.8723C108.293 18.2425 108.903 18.4699 109.213 19.0175C109.636 19.7653 109.831 20.757 110.132 21.8645C109.955 22.1555 109.771 22.226 109.448 22.3404Z" fill="#010101"/>
<path d="M163.172 64.6435C162.402 64.7283 161.875 64.752 161.149 64.7873C160.785 64.2551 160.619 63.7114 160.421 62.8769C161.935 62.5522 163.482 62.5184 165.21 62.5764C164.734 63.3063 164.074 63.9444 163.172 64.6435Z" fill="#010101"/>
<path d="M102.956 13.4043C103.588 13.4301 104.219 13.7009 105.069 14.178C105.306 15.4281 105.324 16.4718 105.342 17.5155C105.342 17.5155 105.149 17.7532 105.052 17.8724C104.41 17.8453 103.865 17.6991 103.116 17.4889C102.926 16.1664 102.94 14.9078 102.956 13.4043Z" fill="#010101"/>
<path d="M105.342 15.1487C106.306 14.5563 107.286 14.2533 108.322 13.6689C108.489 13.3926 108.6 13.3979 108.876 13.4074C109.379 14.7132 109.716 16.0146 110.132 17.5567C110.077 17.8311 109.944 17.8648 109.608 17.8724C108.268 17.3826 107.13 16.919 105.784 16.512C105.504 16.1919 105.431 15.815 105.342 15.1487Z" fill="#010101"/>
<path d="M150.842 25.8426C150.162 26.4106 149.483 26.7257 148.621 26.8085C148.44 26.5762 148.447 26.1498 148.447 26.1498C149.128 25.6232 149.808 25.0966 150.655 24.5745C150.829 24.9159 150.836 25.2528 150.842 25.8426Z" fill="#010101"/>
<path d="M165.211 73.4611C165.006 73.6958 164.68 73.7063 164.11 73.7233C163.513 73.0553 163.161 72.3809 162.816 71.4971C163.411 71.451 163.999 71.6141 164.765 71.8233C164.991 72.3252 165.041 72.781 165.211 73.4611Z" fill="#010101"/>
<path d="M136.474 30.6714C136.219 30.9365 135.987 31.1626 135.672 31.2651C135.502 31.3207 135.189 31.166 134.832 30.9608C134.611 30.5672 134.498 30.319 134.348 30.0433C134.229 29.9929 134.164 30.0073 134.089 29.9782C134.067 29.7869 134.072 29.6765 134.199 29.5784C134.693 29.4289 135.066 29.2671 135.439 29.1052C135.439 29.1052 135.591 29.0632 135.667 29.0425C135.983 29.5414 136.223 30.0612 136.474 30.6714Z" fill="#010101"/>
<path d="M131.682 30.3528C131.6 30.639 131.518 30.9252 131.321 31.1623C130.918 31.1677 130.629 31.2221 130.34 31.2765C130.294 31.1095 130.247 30.9425 130.013 30.7981C129.769 30.874 129.712 30.9274 129.656 30.9808C129.567 30.8346 129.479 30.6883 129.319 30.4372C129.259 30.1456 129.273 29.959 129.529 29.8172C129.956 29.6022 130.14 29.3425 130.323 29.0828C130.728 29.0454 131.133 29.008 131.617 29.0991C131.691 29.6027 131.687 29.9778 131.682 30.3528ZM131.087 29.9905C131.11 29.8539 131.133 29.7174 131.156 29.5809C131.044 29.5886 130.932 29.5963 130.82 29.6039C130.848 29.7308 130.877 29.8576 131.087 29.9905Z" fill="#010101"/>
<path d="M148.204 24.5745C148.45 24.6099 148.44 25.3685 148.447 25.7476C147.721 26.5209 146.988 26.915 146.053 26.7835C146.553 25.6849 147.255 25.112 148.204 24.5745Z" fill="#010101"/>
<path d="M99.6572 38.5231C99.8484 38.305 99.9768 38.1419 100.105 37.9788C100.254 38.0694 100.404 38.16 100.553 38.2505C99.8965 38.9046 99.2403 39.5587 98.5842 40.2128C98.4421 40.1442 98.3 40.0756 98.1579 40.007C98.6368 39.5308 99.1156 39.0545 99.6572 38.5231Z" fill="#010101"/>
<path d="M163.507 52.8071C163.787 52.2652 164.022 51.8241 164.257 51.3831C164.575 51.4147 164.893 51.4464 165.211 51.4781C164.686 52.9358 164.162 54.3935 163.638 55.8511C163.364 55.8344 163.09 55.8177 162.816 55.801C163.031 54.8367 163.247 53.8723 163.507 52.8071Z" fill="#010101"/>
<path d="M164.075 71.3098C163.489 70.5807 163.152 69.9566 162.816 69.3324C163.276 69.3068 163.735 69.2811 164.195 69.2554C164.534 69.9977 164.872 70.74 165.211 71.4823C165.076 71.484 164.933 71.4956 164.81 71.485C164.64 71.4703 164.486 71.4389 164.075 71.3098Z" fill="#010101"/>
</svg>
